<svg width="134" height="128" viewBox="0 0 134 128" fill="none" xmlns="http://www.w3.org/2000/svg">
<rect width="134" height="128" fill="#F5F5F5"/>
<g clip-path="url(#clip0_0_1)">
<path d="M65.2406 125.628C101.855 125.628 131.536 97.0503 131.536 61.7981C131.536 26.5459 101.855 -2.03174 65.2406 -2.03174C28.6265 -2.03174 -1.05511 26.5459 -1.05511 61.7981C-1.05511 97.0503 28.6265 125.628 65.2406 125.628Z" fill="url(#paint0_linear_0_1)"/>
<path d="M81.3886 35.7888C69.2011 35.7888 42.8396 32.6783 42.8396 32.6783C42.8396 32.6783 37.5686 38.37 34.5217 41.3609C28.8454 46.9329 29.339 53.9855 28.5865 62.7817C29.5218 87.2294 45.466 106.709 65.0604 106.709C84.5421 106.709 100.422 87.4478 101.516 63.1885C100.444 52.3316 92.9971 35.7888 81.3886 35.7888Z" fill="#F7DECE"/>
<path d="M65.062 94.744C57.911 94.744 54.1694 91.2747 53.7672 90.8769C53.1919 90.3201 52.8655 89.5616 52.8597 88.7685C52.854 87.9754 53.1695 87.2126 53.7368 86.6477C54.3041 86.0829 55.0766 85.7625 55.8847 85.7569C56.6926 85.7512 57.4698 86.061 58.0451 86.6179C58.2005 86.7584 60.5008 88.7623 65.062 88.7623C69.6902 88.7623 71.9875 86.6986 72.085 86.6118C72.6702 86.0737 73.4464 85.7816 74.248 85.7978C75.0496 85.8141 75.813 86.1373 76.3751 86.6986C76.9325 87.2574 77.2431 88.0093 77.2397 88.7914C77.2363 89.5735 76.919 90.3228 76.3567 90.8769C75.9545 91.2747 72.213 94.744 65.062 94.744ZM68.1089 79.7895H62.0151C61.2071 79.7895 60.4321 79.4745 59.8606 78.9136C59.2893 78.3527 58.9682 77.5919 58.9682 76.7987C58.9682 76.0055 59.2893 75.2447 59.8606 74.6838C60.4321 74.1229 61.2071 73.8077 62.0151 73.8077H68.1089C68.9169 73.8077 69.6919 74.1229 70.2633 74.6838C70.8347 75.2447 71.1558 76.0055 71.1558 76.7987C71.1558 77.5919 70.8347 78.3527 70.2633 78.9136C69.6919 79.4745 68.9169 79.7895 68.1089 79.7895Z" fill="#C1694F"/>
<path d="M49.8272 67.8249C49.0191 67.8249 48.2441 67.5098 47.6728 66.9489C47.1013 66.388 46.7803 65.6272 46.7803 64.834V58.8521C46.7803 58.0589 47.1013 57.2982 47.6728 56.7373C48.2441 56.1763 49.0191 55.8613 49.8272 55.8613C50.6352 55.8613 51.4102 56.1763 51.9817 56.7373C52.553 57.2982 52.8741 58.0589 52.8741 58.8521V64.834C52.8741 65.6272 52.553 66.388 51.9817 66.9489C51.4102 67.5098 50.6352 67.8249 49.8272 67.8249ZM80.2959 67.8249C79.4878 67.8249 78.7128 67.5098 78.1414 66.9489C77.57 66.388 77.249 65.6272 77.249 64.834V58.8521C77.249 58.0589 77.57 57.2982 78.1414 56.7373C78.7128 56.1763 79.4878 55.8613 80.2959 55.8613C81.1039 55.8613 81.8789 56.1763 82.4503 56.7373C83.0217 57.2982 83.3427 58.0589 83.3427 58.8521V64.834C83.3427 65.6272 83.0217 66.388 82.4503 66.9489C81.8789 67.5098 81.1039 67.8249 80.2959 67.8249Z" fill="#662113"/>
<path d="M65.0545 11.247C90.054 11.247 105.672 29.3539 105.672 44.4431C105.672 59.5292 102.546 65.5708 99.4231 59.5292C96.297 53.4965 93.174 44.47 93.174 44.47C93.174 44.47 82.577 51.2085 74.2743 41.4222C74.2743 41.4222 77.5558 59.5292 58.8053 41.4222C58.8053 41.4222 61.9314 53.4965 43.1841 38.4075C43.1841 38.4075 33.8089 44.4431 30.6858 59.5292C29.8205 63.7194 24.4367 59.5292 24.4367 44.4431C24.4337 29.3539 36.9319 11.247 65.0545 11.247Z" fill="#008000"/>
<path d="M82.4621 80.7359C83.1031 80.7359 83.6226 80.2259 83.6226 79.5967C83.6226 78.9676 83.1031 78.4575 82.4621 78.4575C81.8212 78.4575 81.3016 78.9676 81.3016 79.5967C81.3016 80.2259 81.8212 80.7359 82.4621 80.7359Z" fill="#FF9494"/>
<path d="M84.2029 83.0155C84.5233 83.0155 84.7831 82.7605 84.7831 82.4459C84.7831 82.1313 84.5233 81.8763 84.2029 81.8763C83.8824 81.8763 83.6226 82.1313 83.6226 82.4459C83.6226 82.7605 83.8824 83.0155 84.2029 83.0155Z" fill="#FF9494"/>
<path d="M81.8808 87.5722C82.8422 87.5722 83.6216 86.8072 83.6216 85.8635C83.6216 84.9197 82.8422 84.1547 81.8808 84.1547C80.9194 84.1547 80.1401 84.9197 80.1401 85.8635C80.1401 86.8072 80.9194 87.5722 81.8808 87.5722Z" fill="#FF9494"/>
<path d="M87.1042 87.5712C87.7452 87.5712 88.2647 87.0612 88.2647 86.432C88.2647 85.8029 87.7452 85.2928 87.1042 85.2928C86.4633 85.2928 85.9437 85.8029 85.9437 86.432C85.9437 87.0612 86.4633 87.5712 87.1042 87.5712Z" fill="#FF9494"/>
<path d="M90.0034 84.1536C90.9648 84.1536 91.7442 83.3886 91.7442 82.4448C91.7442 81.5011 90.9648 80.736 90.0034 80.736C89.042 80.736 88.2627 81.5011 88.2627 82.4448C88.2627 83.3886 89.042 84.1536 90.0034 84.1536Z" fill="#FF9494"/>
</g>
<defs>
<linearGradient id="paint0_linear_0_1" x1="65.2406" y1="-2.03174" x2="65.2406" y2="125.628" gradientUnits="userSpaceOnUse">
<stop offset="0.74046" stop-color="#FFA500" stop-opacity="0.7"/>
</linearGradient>
<clipPath id="clip0_0_1">
<rect width="134" height="128" fill="white"/>
</clipPath>
</defs>
</svg>
