<svg width="127" height="126" viewBox="0 0 127 126" fill="none" xmlns="http://www.w3.org/2000/svg">
<rect width="127" height="126" fill="#F5F5F5"/>
<g clip-path="url(#clip0_0_1)">
<path d="M63.8325 125.665C98.5339 125.665 126.665 97.5339 126.665 62.8325C126.665 28.1311 98.5339 0 63.8325 0C29.1311 0 1 28.1311 1 62.8325C1 97.5339 29.1311 125.665 63.8325 125.665Z" fill="url(#paint0_linear_0_1)"/>
<mask id="mask0_0_1" style="mask-type:alpha" maskUnits="userSpaceOnUse" x="0" y="-8" width="126" height="126">
<path d="M62.8325 117.665C97.5339 117.665 125.665 89.5339 125.665 54.8325C125.665 20.1311 97.5339 -8 62.8325 -8C28.1311 -8 0 20.1311 0 54.8325C0 89.5339 28.1311 117.665 62.8325 117.665Z" fill="url(#paint1_linear_0_1)"/>
</mask>
<g mask="url(#mask0_0_1)">
<path d="M76.804 57.8867H63.8435C58.6144 57.8867 54.1231 62.3809 54.1231 67.6071V122.695H85.1945V96.576L86.5273 91.4662V67.6071C86.5273 62.378 82.0331 57.8867 76.804 57.8867Z" fill="#008000"/>
<path d="M64.7821 65.8262C61.3014 65.8262 57.9634 67.2089 55.5022 69.67C53.041 72.1312 51.6583 75.4693 51.6583 78.95C51.6583 82.4306 53.041 85.7687 55.5022 88.2299C57.9634 90.6911 61.3014 92.074 64.7821 92.074V65.8262Z" fill="#008000"/>
<path d="M64.7837 68.7422C62.0765 68.7422 59.4802 69.8176 57.5659 71.7319C55.6517 73.6461 54.5763 76.2424 54.5763 78.9496C54.5763 81.6568 55.6517 84.2531 57.5659 86.1673C59.4802 88.0816 62.0765 89.157 64.7837 89.157V68.7422Z" fill="#008000"/>
<path d="M70.6161 65.8262C67.1354 65.8262 63.7973 67.2089 61.3361 69.67C58.875 72.1312 57.4923 75.4693 57.4923 78.95C57.4923 82.4306 58.875 85.7687 61.3361 88.2299C63.7973 90.6911 67.1354 92.074 70.6161 92.074V65.8262Z" fill="#008000"/>
<path d="M70.6157 68.7422C67.9085 68.7422 65.3122 69.8176 63.398 71.7319C61.4837 73.6461 60.4083 76.2424 60.4083 78.9496C60.4083 81.6568 61.4837 84.2531 63.398 86.1673C65.3122 88.0816 67.9085 89.157 70.6157 89.157V68.7422Z" fill="#008000"/>
<path d="M46.7411 122.695H67.6051V81.136C66.2653 80.9019 64.9084 80.78 63.5484 80.7715C57.0921 80.7715 50.9004 83.3362 46.3351 87.9014C41.7699 92.467 39.2052 98.658 39.2052 105.115C39.2052 112.032 42.1041 118.262 46.7411 122.695Z" fill="#008000"/>
<path d="M67.0846 70.6986V83.7962C65.9162 83.5926 64.733 83.4863 63.547 83.4783C60.7055 83.4779 57.8918 84.0373 55.2665 85.1245C52.6413 86.2117 50.2559 87.8055 48.2467 89.8147C46.2374 91.8239 44.6437 94.209 43.5565 96.835C42.4693 99.46 41.9099 102.274 41.9102 105.115C41.9105 108.555 42.7324 111.945 44.3075 115.002C45.8826 118.06 48.1653 120.698 50.9657 122.695H82.1595V62.4219L67.0846 70.6986Z" fill="#008000"/>
<path d="M83.5597 64.3672L97.7043 79.2817L85.1988 92.438L85.1929 101.321L73.7023 109.119L66.0001 97.048L82.4632 80.1041L76.8083 74.4958L83.5597 64.3672Z" fill="#008000"/>
<path d="M83.5562 60.7207L99.4919 77.3267C99.4919 77.3267 105.024 81.7829 99.4919 87.0471C96.1697 90.2055 75.3553 104.225 75.3553 104.225L68.8751 97.744L86.531 80.5668L76.8077 70.8464L83.5562 60.7207Z" fill="#008000"/>
<path d="M71.5802 97.996C68.3022 96.436 65.1933 96.651 62.1865 98.41C60.7487 99.253 60.1625 100.828 62.3644 101.35C64.575 101.866 71.5802 97.996 71.5802 97.996Z" fill="#EEC2AD"/>
<path d="M75.9988 103.589C76.4042 108.737 69.5069 113.546 64.2749 112.919C60.5361 112.47 57.2814 102.396 61.7172 101.098C65.6718 99.944 66.7655 96.351 71.458 97.692C75.1851 98.76 75.8501 101.612 75.9988 103.589Z" fill="#F7DECE"/>
<path d="M72.5388 105.58L71.9205 104.294C71.9205 104.294 69.672 107.639 66.5456 108.931C64.1745 109.899 62.1768 109.995 61.1298 109.823C61.5789 110.678 61.5877 110.824 62.1768 111.369C65.4344 111.483 70.6402 109.736 72.5388 105.58ZM66.0731 105.466C68.9603 103.489 69.8032 101.599 69.8032 101.599L68.8612 100.406C68.8612 100.406 65.5219 105.586 59.5958 105.32C59.6395 106.044 59.5812 106.184 59.7941 106.924C60.5903 106.951 63.7283 107.07 66.0731 105.466Z" fill="#E0AA94"/>
<path d="M57.7063 31.7291C58.1077 32.6838 58.317 33.7083 58.3222 34.744C58.3275 35.7796 58.1286 36.8062 57.737 37.7649C57.3454 38.7237 56.7686 39.5959 56.0398 40.3317C55.3109 41.0675 54.4442 41.6525 53.4892 42.0531C52.5312 42.4479 51.5048 42.6499 50.4687 42.6478C49.4326 42.6456 48.4071 42.4393 47.4507 42.0406C46.4944 41.6419 45.626 41.0587 44.8951 40.3242C44.1643 39.5898 43.5853 38.7185 43.1914 37.7602C42.7902 36.8051 42.5812 35.7803 42.5763 34.7444C42.5715 33.7085 42.7708 32.6817 43.163 31.7229C43.5552 30.7641 44.1326 29.892 44.862 29.1564C45.5915 28.4209 46.4588 27.8363 47.4143 27.4361C48.3719 27.0416 49.3979 26.8396 50.4336 26.8418C51.4693 26.844 52.4944 27.0504 53.4502 27.4491C54.4061 27.8478 55.274 28.4311 56.0043 29.1655C56.7346 29.8998 57.313 30.771 57.7063 31.7291Z" fill="#292F33"/>
<path d="M73.4846 52.1137C76.993 47.9286 79.087 42.58 77.2876 38.2579L74.3128 31.0923C58.2318 37.1467 51.6145 28.8379 51.6145 28.8379C51.6145 28.8379 54.7642 36.4147 48.004 40.2731L51.5999 48.929C54.5396 55.9983 58.5468 61.0612 65.6074 58.1594L65.8465 59.1101C66.4473 61.4928 66.0069 63.4206 69.5154 63.5547C71.9681 63.648 75.2811 59.2676 74.6803 56.8849L73.4846 52.1137Z" fill="#F7DECE"/>
<path d="M92.2276 33.4866C94.6307 27.0647 88.8475 22.1826 83.9246 21.681C80.9382 21.3777 78.2435 23.2821 76.9311 25.5627C70.9495 15.5478 62.002 17.9072 56.3092 19.9107C50.2781 22.0339 41.3072 28.2779 44.8273 34.9885C48.3474 41.7021 60.1034 38.8149 60.1034 38.8149L64.3585 45.6742C63.2094 39.7714 67.129 38.4532 68.9401 39.7394C70.8475 41.0955 69.5817 45.4438 70.4508 47.1587C71.3199 48.8735 74.3296 51.2241 74.3296 51.2241C76.1786 48.8735 82.0144 40.7893 79.2875 30.9989C80.4162 30.576 82.1106 30.8618 83.4784 31.5763C86.9547 33.3816 84.2162 42.3758 89.0516 45.2193C93.6858 47.9461 96.4039 44.1956 96.4039 44.1956C91.656 44.3531 89.9324 39.6256 92.2276 33.4866Z" fill="#292F33"/>
<path d="M54.1147 52.0637L53.2165 52.437C53.1224 52.479 53.0208 52.5017 52.9178 52.5038C52.8147 52.5059 52.7123 52.4874 52.6165 52.4494C52.5207 52.4113 52.4335 52.3545 52.36 52.2823C52.2866 52.21 52.2283 52.1238 52.1886 52.0287C52.1489 51.9336 52.1286 51.8315 52.129 51.7284C52.1294 51.6254 52.1503 51.5234 52.1907 51.4286C52.231 51.3337 52.2899 51.2479 52.3639 51.1762C52.4379 51.1045 52.5255 51.0483 52.6215 51.0109L53.5227 50.6376C53.6173 50.5932 53.7198 50.5685 53.8242 50.5649C53.9285 50.5613 54.0325 50.5789 54.1299 50.6166C54.2273 50.6543 54.316 50.7113 54.3907 50.7843C54.4655 50.8572 54.5246 50.9445 54.5647 51.041C54.6047 51.1374 54.6248 51.241 54.6237 51.3454C54.6226 51.4498 54.6004 51.5529 54.5583 51.6485C54.5163 51.7441 54.4553 51.8302 54.379 51.9015C54.3028 51.9729 54.2129 52.0281 54.1147 52.0637Z" fill="#BF6952"/>
<path d="M54.5567 46.0241C54.1784 46.1807 53.7535 46.1808 53.3751 46.0244C52.9968 45.868 52.6959 45.568 52.5386 45.19L51.9407 43.758C51.7833 43.379 51.7829 42.953 51.9396 42.5737C52.0963 42.1944 52.3972 41.8929 52.7762 41.7355C53.1552 41.5781 53.5813 41.5777 53.9606 41.7344C54.3398 41.8911 54.6414 42.1921 54.7988 42.5711L55.3937 44.0001C55.4721 44.1879 55.5126 44.3893 55.5129 44.5928C55.5132 44.7963 55.4733 44.9979 55.3956 45.1859C55.3178 45.374 55.2037 45.5448 55.0597 45.6887C54.9158 45.8325 54.7448 45.9465 54.5567 46.0241Z" fill="#662113"/>
<path d="M55.338 55.5655C56.0467 56.4259 56.8224 57.1433 57.6594 57.7033C60.7362 55.9272 60.9521 53.2324 60.9521 53.2324L55.4838 55.5043L55.338 55.5655Z" fill="#DF1F32"/>
</g>
</g>
<defs>
<linearGradient id="paint0_linear_0_1" x1="63.8325" y1="0" x2="63.8325" y2="125.665" gradientUnits="userSpaceOnUse">
<stop offset="0.153917" stop-color="#FFA500" stop-opacity="0.75"/>
<stop offset="1" stop-color="#FFA500" stop-opacity="0.75"/>
</linearGradient>
<linearGradient id="paint1_linear_0_1" x1="62.8325" y1="-8" x2="62.8325" y2="117.665" gradientUnits="userSpaceOnUse">
<stop stop-color="#AFC1DC"/>
<stop offset="1" stop-color="#E2E5ED"/>
</linearGradient>
<clipPath id="clip0_0_1">
<rect width="127" height="126" fill="white"/>
</clipPath>
</defs>
</svg>
