<?xml version="1.0" encoding="UTF-8"?>
<svg version="1.1" xmlns="http://www.w3.org/2000/svg" width="500" height="500">
<path d="M0 0 C165 0 330 0 500 0 C500 165 500 330 500 500 C335 500 170 500 0 500 C0 335 0 170 0 0 Z " fill="#FEFEFE" transform="translate(0,0)"/>
<path d="M0 0 C2.64 0 5.28 0 8 0 C8 20.79 8 41.58 8 63 C13.28 64.32 18.56 65.64 24 67 C26.95590749 68.10122044 29.682507 69.15781145 32.5 70.5 C33.15871094 70.80043213 33.81742188 71.10086426 34.49609375 71.41040039 C39.05009374 73.50197143 43.55563317 75.68522561 48 78 C48 78.66 48 79.32 48 80 C48.763125 80.28875 49.52625 80.5775 50.3125 80.875 C53 82 53 82 56 84 C55.835 83.05125 55.67 82.1025 55.5 81.125 C54.81458208 76.4236123 54.91416559 71.73996714 55 67 C56.65 67 58.3 67 60 67 C60.06058594 68.08539063 60.12117188 69.17078125 60.18359375 70.2890625 C60.26806064 71.73438486 60.35270551 73.17969682 60.4375 74.625 C60.47681641 75.33785156 60.51613281 76.05070312 60.55664062 76.78515625 C60.80309681 80.91803682 61.23470053 84.92269024 62 89 C62.67482422 88.38125 62.67482422 88.38125 63.36328125 87.75 C71.02170363 80.87430215 78.49659284 75.07288878 88 71 C79.42 71.33 70.84 71.66 62 72 C62 70.35 62 68.7 62 67 C67.53087473 65.22594584 72.85217935 64.42522197 78.625 63.875 C79.45773437 63.78863281 80.29046875 63.70226562 81.1484375 63.61328125 C85.15049969 63.21180049 88.96003052 63 93 63 C93.99 66.63 94.98 70.26 96 74 C94.845 74.495 93.69 74.99 92.5 75.5 C85.20565917 78.73152178 78.11809373 82.40165078 71 86 C71.55945313 85.76925781 72.11890625 85.53851563 72.6953125 85.30078125 C77.84974806 83.20420215 83.035725 81.19289865 88.25 79.25 C89.38953125 78.82203125 90.5290625 78.3940625 91.703125 77.953125 C94.98580158 77.00410476 97.60522038 76.8148302 101 77 C101.33 77.99 101.66 78.98 102 80 C100.35 80 98.7 80 97 80 C97 80.66 97 81.32 97 82 C99.31 82 101.62 82 104 82 C103.67 83.98 103.34 85.96 103 88 C102.20827393 88.14622803 101.41654785 88.29245605 100.60083008 88.44311523 C97.00465011 89.10753222 93.4085741 89.77251024 89.8125 90.4375 C88.56662109 90.66759766 87.32074219 90.89769531 86.03710938 91.13476562 C84.2340332 91.46831055 84.2340332 91.46831055 82.39453125 91.80859375 C80.73707886 92.11494751 80.73707886 92.11494751 79.04614258 92.42749023 C76.35982398 92.93237259 73.6788881 93.45724724 71 94 C70.67 95.98 70.34 97.96 70 100 C75.73378868 103.98872256 80.06437131 104.86150105 87 104 C92.95110758 102.89754662 96.60706033 100.12487639 100.390625 95.46484375 C103.38838902 90.87360808 107 84.609111 107 79 C105.02 78.01 103.04 77.02 101 76 C101 75.34 101 74.68 101 74 C100.34 74 99.68 74 99 74 C95.05001202 67.45783241 94.49853343 62.57771707 95 55 C95.66 55 96.32 55 97 55 C97.02578125 54.39414063 97.0515625 53.78828125 97.078125 53.1640625 C97.60479359 45.38373112 98.9481678 37.27447247 105.0625 31.875 C108 30 108 30 111 30 C111.144375 29.360625 111.28875 28.72125 111.4375 28.0625 C112 26 112 26 113 25 C116.62059232 24.70643846 118.87703962 25.14935681 122 27 C122.33 26.67 122.66 26.34 123 26 C125.9375 25.8125 125.9375 25.8125 129 26 C131.5083598 28.5083598 131.91800947 30.62673541 133 34 C133.53625 35.11375 134.0725 36.2275 134.625 37.375 C138.1481703 46.66335805 135.27401726 58.90550762 132 68 C128.94751076 73.36817074 125.74282582 76.85715591 120 79.25 C117.18353499 79.95411625 114.88519369 80.16971728 112 80 C111.79375 81.27875 111.5875 82.5575 111.375 83.875 C109.12676466 93.75173043 103.1566484 101.18577371 95 107 C89.40431758 110.23960561 83.36138337 110.91886649 77 110 C73.02210051 108.66719862 69.91191144 107.03349963 67.125 103.875 C64.14974068 101.24977118 61.21011876 101.15309699 57.33984375 100.6875 C54.36168151 99.81244732 53.53006787 98.64877323 52 96 C52 95.34 52 94.68 52 94 C51.23558594 93.89042969 50.47117188 93.78085938 49.68359375 93.66796875 C41.02902047 92.38696693 32.60698847 90.72139769 24 89 C12.78 87.68 1.56 86.36 -10 85 C-10 60.25 -10 35.5 -10 10 C-7.69 10 -5.38 10 -3 10 C-3 32.77 -3 55.54 -3 79 C0.63 79.33 4.26 79.66 8 80 C25.03572404 82.05574385 41.71310077 85.57103359 58 91 C58 90.01 58 89.02 58 88 C57.0925 87.731875 56.185 87.46375 55.25 87.1875 C52 86 52 86 50.08520508 84.54248047 C46.38259732 81.80356514 42.00852492 80.61973467 37.6875 79.125 C36.68307861 78.77493896 35.67865723 78.42487793 34.64379883 78.06420898 C24.5954581 74.67522523 14.38000263 72.42336413 3.97338867 70.44555664 C2 70 2 70 0 69 C0 46.23 0 23.46 0 0 Z " fill="#3071BF" transform="translate(187,159)"/>
<path d="M0 0 C0.66 0 1.32 0 2 0 C2.66 1.98 3.32 3.96 4 6 C5.093125 5.896875 6.18625 5.79375 7.3125 5.6875 C8.529375 5.790625 9.74625 5.89375 11 6 C15.32116295 11.37920513 14.59410976 17.4489497 14 24 C12.88296468 28.76449758 10.70590188 32.94114718 8 37 C7.64035156 37.57878906 7.28070313 38.15757812 6.91015625 38.75390625 C4.17089265 42.94594224 1.90684026 45.36438658 -3 47 C-7.22024383 47.68068449 -9.43985605 47.8075393 -13.21875 45.8515625 C-17.68732114 42.53251509 -19.50433286 39.608181 -20.5 34.125 C-20.71087128 32.08742451 -20.87986689 30.04493242 -21 28 C-21.06832031 27.17757812 -21.13664062 26.35515625 -21.20703125 25.5078125 C-21.57831642 17.5595595 -18.78815412 11.28445228 -14 5 C-11 3 -11 3 -8 3 C-7.67 3.66 -7.34 4.32 -7 5 C-5.02 4.67 -3.04 4.34 -1 4 C-0.67 2.68 -0.34 1.36 0 0 Z " fill="#F7FBF9" transform="translate(307,187)"/>
<path d="M0 0 C5.28 0 10.56 0 16 0 C16 4.62 16 9.24 16 14 C20.29 14 24.58 14 29 14 C29 19.28 29 24.56 29 30 C24.71 30 20.42 30 16 30 C16 34.29 16 38.58 16 43 C10.72 43 5.44 43 0 43 C0 38.71 0 34.42 0 30 C-4.29 30 -8.58 30 -13 30 C-13 24.72 -13 19.44 -13 14 C-8.71 14 -4.42 14 0 14 C0 9.38 0 4.76 0 0 Z " fill="#0561C6" transform="translate(237,178)"/>
<path d="M0 0 C2.31 0 4.62 0 7 0 C7 22.77 7 45.54 7 69 C10.63 69.33 14.26 69.66 18 70 C54.67406113 74.42555159 54.67406113 74.42555159 69 82 C69 83.98 69 85.96 69 88 C69.66 88 70.32 88 71 88 C71 88.99 71 89.98 71 91 C65.49411765 90.51058824 65.49411765 90.51058824 63.125 88.0625 C62 86 62 86 62 84 C61.23558594 83.89042969 60.47117188 83.78085938 59.68359375 83.66796875 C51.02902047 82.38696693 42.60698847 80.72139769 34 79 C22.78 77.68 11.56 76.36 0 75 C0 50.25 0 25.5 0 0 Z " fill="#7CC026" transform="translate(177,169)"/>
<path d="M0 0 C2.64 0 5.28 0 8 0 C8 20.79 8 41.58 8 63 C13.28 64.32 18.56 65.64 24 67 C26.95590749 68.10122044 29.682507 69.15781145 32.5 70.5 C33.15871094 70.80043213 33.81742188 71.10086426 34.49609375 71.41040039 C39.05009374 73.50197143 43.55563317 75.68522561 48 78 C48 78.66 48 79.32 48 80 C48.7425 80.28875 49.485 80.5775 50.25 80.875 C52.56739797 81.82302644 54.77917115 82.84845911 57 84 C57 84.66 57 85.32 57 86 C56.01 86.33 55.02 86.66 54 87 C52.61300421 86.07462376 51.23078907 85.14122705 49.87451172 84.17138672 C46.07523171 81.79720783 41.78026319 80.51012362 37.5625 79.0625 C36.56710205 78.71695068 35.5717041 78.37140137 34.54614258 78.01538086 C24.53170985 74.65213189 14.3405981 72.41587518 3.97338867 70.44555664 C2 70 2 70 0 69 C0 46.23 0 23.46 0 0 Z " fill="#3794EB" transform="translate(187,159)"/>
<path d="M0 0 C1 1 1 1 1.11352539 3.68383789 C1.10567017 5.43555298 1.10567017 5.43555298 1.09765625 7.22265625 C1.09282227 9.11274414 1.09282227 9.11274414 1.08789062 11.04101562 C1.07953403 12.38151109 1.07106907 13.72200588 1.0625 15.0625 C1.0574866 16.40689942 1.05292342 17.7513006 1.04882812 19.09570312 C1.03699488 22.39717941 1.02050971 25.69856803 1 29 C-2 30 -2 30 -4.66796875 28.94921875 C-7 27 -7 27 -7.48828125 24.08203125 C-7.40126953 22.46361328 -7.40126953 22.46361328 -7.3125 20.8125 C-7.26738281 19.72582031 -7.22226562 18.63914063 -7.17578125 17.51953125 C-7.08876953 16.27236328 -7.08876953 16.27236328 -7 15 C-17.86660407 17.48822991 -28.68678578 20.00578898 -39.31616211 23.38745117 C-43.89977123 24.81091418 -48.24600747 25.51457568 -53 26 C-53 24.35 -53 22.7 -53 21 C-53.66 21 -54.32 21 -55 21 C-55 20.34 -55 19.68 -55 19 C-57.64 19 -60.28 19 -63 19 C-62.4375 17.0625 -62.4375 17.0625 -61 15 C-57.375 14.25 -57.375 14.25 -54 14 C-54 15.65 -54 17.3 -54 19 C-52.35 18.67 -50.7 18.34 -49 18 C-48.01 14.535 -48.01 14.535 -47 11 C-43.535 10.505 -43.535 10.505 -40 10 C-39.67 11.32 -39.34 12.64 -39 14 C-36.525 14.495 -36.525 14.495 -34 15 C-33.67 12.36 -33.34 9.72 -33 7 C-28.545 6.505 -28.545 6.505 -24 6 C-23.505 7.98 -23.505 7.98 -23 10 C-21.03243548 9.96877057 -21.03243548 9.96877057 -19 9 C-18.61908203 7.56333984 -18.61908203 7.56333984 -18.23046875 6.09765625 C-17 3 -17 3 -14.35546875 1.50390625 C-13.31003906 1.19324219 -12.26460938 0.88257813 -11.1875 0.5625 C-10.14980469 0.23378906 -9.11210937 -0.09492188 -8.04296875 -0.43359375 C-4.93246477 -1.01257074 -3.00537226 -0.9118634 0 0 Z " fill="#1464C0" transform="translate(310,154)"/>
<path d="M0 0 C1.98 0 3.96 0 6 0 C6 12.21 6 24.42 6 37 C4.02 37 2.04 37 0 37 C0 35.68 0 34.36 0 33 C-0.61875 33.66 -1.2375 34.32 -1.875 35 C-6.2431499 37.79561594 -9.94088483 37.94706636 -15 37 C-18.89469832 34.98495159 -21.37103831 32.04683757 -23 28 C-23.62535941 23.64223235 -24.01372641 19.04764658 -22.01953125 15.01953125 C-19.79832683 12.25156882 -17.41815868 9.97661677 -14 9 C-7.72870153 8.39310015 -4.89956953 9.08034438 0 13 C0 8.71 0 4.42 0 0 Z " fill="#85BD1A" transform="translate(326,289)"/>
<path d="M0 0 C1.98 0 3.96 0 6 0 C6.33 3.96 6.66 7.92 7 12 C8.299375 11.2575 8.299375 11.2575 9.625 10.5 C13.73279498 8.67431334 16.53872918 8.06913476 20.828125 9.69140625 C24.07589779 11.3221157 25.81846854 12.74234244 27.9375 15.75 C29.7223511 21.20954454 29.95974165 25.68627598 27.375 30.8125 C24.71940776 34.37658433 23.20234072 35.62615784 19 37 C15.09704335 37.53496124 11.97493681 37.58496208 8.5 35.5 C8.005 35.005 7.51 34.51 7 34 C6.67 34.66 6.34 35.32 6 36 C4.02 36 2.04 36 0 36 C0 24.12 0 12.24 0 0 Z " fill="#1D0E55" transform="translate(97,289)"/>
<path d="M0 0 C1.485 5.445 1.485 5.445 3 11 C1.845 11.495 0.69 11.99 -0.5 12.5 C-7.79434083 15.73152178 -14.88190627 19.40165078 -22 23 C-21.44054687 22.76925781 -20.88109375 22.53851563 -20.3046875 22.30078125 C-15.15025194 20.20420215 -9.964275 18.19289865 -4.75 16.25 C-3.61046875 15.82203125 -2.4709375 15.3940625 -1.296875 14.953125 C1.98580158 14.00410476 4.60522038 13.8148302 8 14 C8.495 15.485 8.495 15.485 9 17 C7.35 17 5.7 17 4 17 C4 17.66 4 18.32 4 19 C6.31 19 8.62 19 11 19 C10.67 20.98 10.34 22.96 10 25 C8.81241089 25.21934204 8.81241089 25.21934204 7.60083008 25.44311523 C4.00465011 26.10753222 0.4085741 26.77251024 -3.1875 27.4375 C-4.43337891 27.66759766 -5.67925781 27.89769531 -6.96289062 28.13476562 C-8.7659668 28.46831055 -8.7659668 28.46831055 -10.60546875 28.80859375 C-11.71043701 29.01282959 -12.81540527 29.21706543 -13.95385742 29.42749023 C-16.64017602 29.93237259 -19.3211119 30.45724724 -22 31 C-22.495 32.485 -22.495 32.485 -23 34 C-24.32 34 -25.64 34 -27 34 C-27.33 32.35 -27.66 30.7 -28 29 C-28.66 29 -29.32 29 -30 29 C-30.33 28.01 -30.66 27.02 -31 26 C-22.98504375 18.65104298 -15.04379241 12.30448246 -5 8 C-13.58 8.33 -22.16 8.66 -31 9 C-31 7.35 -31 5.7 -31 4 C-25.46912527 2.22594584 -20.14782065 1.42522197 -14.375 0.875 C-13.54226563 0.78863281 -12.70953125 0.70226562 -11.8515625 0.61328125 C-7.84950031 0.21180049 -4.03996948 0 0 0 Z " fill="#87C425" transform="translate(280,222)"/>
<path d="M0 0 C5.34740414 1.95385921 8.45618143 4.91236287 11 10 C11.25499658 14.50493965 11.28664947 18.05033273 9 22 C4.97851187 25.9765553 1.86474701 28.14786062 -3.8125 28.25 C-8.05002112 28.20115249 -10.67203755 27.82372572 -14 25 C-17.32323353 21.32070574 -17.86352677 18.47391091 -18.3125 13.625 C-17.82784016 8.00294591 -15.43736342 5.24135932 -11.25 1.625 C-7.24603395 -0.37698302 -4.38614557 -0.71932787 0 0 Z " fill="#82B315" transform="translate(355,298)"/>
<path d="M0 0 C3.99086011 1.37692037 7.09580971 3.03929781 10 6.125 C11.9736221 11.79916353 11.94607071 16.99869658 9.375 22.4375 C5.5070871 26.61077444 2.06771371 28.15053965 -3.5625 28.375 C-7.49315876 28.21671844 -9.93897801 27.62373313 -13 25 C-16.66155734 20.84363761 -17.654882 17.57182624 -17.3828125 12.17578125 C-16.5311563 7.33524548 -13.8211159 4.69338676 -10.1875 1.625 C-6.31957839 -0.34688161 -4.29756089 -0.59276702 0 0 Z " fill="#1C0C5A" transform="translate(147,298)"/>
<path d="M0 0 C3.00622872 1.79121128 5.4087394 3.8174788 7 7 C8.03032087 16.83220489 8.03032087 16.83220489 6.0234375 21.0546875 C3.25803808 24.46478126 0.18929062 26.65767456 -4.1484375 27.3359375 C-9.60274135 27.43162704 -12.75007465 26.74398185 -17 23 C-20.63756367 18.99867996 -20.35556345 14.77312569 -20.3984375 9.62109375 C-19.938569 6.59588041 -19.11096724 5.18819775 -17 3 C-16.34 3 -15.68 3 -15 3 C-15 2.34 -15 1.68 -15 1 C-9.83275599 -1.25238841 -5.38525606 -1.51941153 0 0 Z " fill="#20105C" transform="translate(183,299)"/>
<path d="M0 0 C0.886875 0.53625 1.77375 1.0725 2.6875 1.625 C3.450625 2.07875 4.21375 2.5325 5 3 C7.21734114 2.3498008 7.21734114 2.3498008 9 1 C12.20613847 -0.60306924 15.52139997 -0.48740461 19 0 C22.57242776 2.17452125 24.42806625 4.16835694 26 8 C26.22705078 10.19824219 26.22705078 10.19824219 26.1953125 12.546875 C26.18886719 13.39121094 26.18242187 14.23554688 26.17578125 15.10546875 C26.15902344 15.97816406 26.14226562 16.85085938 26.125 17.75 C26.11597656 18.63816406 26.10695313 19.52632813 26.09765625 20.44140625 C26.07414577 22.62788058 26.04128499 24.81380094 26 27 C24.02 27 22.04 27 20 27 C19.95101562 25.80761719 19.90203125 24.61523438 19.8515625 23.38671875 C19.77652396 21.82028932 19.7009766 20.25388421 19.625 18.6875 C19.5940625 17.90181641 19.563125 17.11613281 19.53125 16.30664062 C19.47324219 15.1706543 19.47324219 15.1706543 19.4140625 14.01171875 C19.3826416 13.31522217 19.3512207 12.61872559 19.31884766 11.90112305 C19.07881747 9.67467261 19.07881747 9.67467261 17 7 C13.5 6.5 13.5 6.5 10 7 C7.9859044 10.0211434 7.73163404 10.80660017 7.5859375 14.23046875 C7.54726562 15.03291016 7.50859375 15.83535156 7.46875 16.66210938 C7.42234375 17.91217773 7.42234375 17.91217773 7.375 19.1875 C7.33632812 20.03248047 7.29765625 20.87746094 7.2578125 21.74804688 C7.16363721 23.83167524 7.08073325 25.91580753 7 28 C5.02 28 3.04 28 1 28 C0.97494385 27.44014404 0.9498877 26.88028809 0.92407227 26.3034668 C0.80796255 23.76458695 0.6853042 21.22606447 0.5625 18.6875 C0.52318359 17.80642578 0.48386719 16.92535156 0.44335938 16.01757812 C0.40146484 15.17001953 0.35957031 14.32246094 0.31640625 13.44921875 C0.27974854 12.66893311 0.24309082 11.88864746 0.20532227 11.0847168 C0.05874737 8.80670899 0.05874737 8.80670899 -1 6 C-2.299375 6.144375 -3.59875 6.28875 -4.9375 6.4375 C-5.66839844 6.51871094 -6.39929688 6.59992188 -7.15234375 6.68359375 C-9.01140229 6.81886614 -9.01140229 6.81886614 -10 8 C-10.15620555 9.41327947 -10.25056173 10.8335459 -10.31640625 12.25390625 C-10.35830078 13.10791016 -10.40019531 13.96191406 -10.44335938 14.84179688 C-10.50233398 16.18854492 -10.50233398 16.18854492 -10.5625 17.5625 C-10.60568359 18.46419922 -10.64886719 19.36589844 -10.69335938 20.29492188 C-10.79978142 22.52978485 -10.90179988 24.76476308 -11 27 C-12.98 27 -14.96 27 -17 27 C-17 18.42 -17 9.84 -17 1 C-14.33333333 1 -11.66666667 1 -9 1 C-5.93570224 -0.53214888 -3.3834358 -0.22938548 0 0 Z " fill="#2F99EA" transform="translate(244,298)"/>
<path d="M0 0 C3 1 3 1 4.6875 3.9375 C6 7 6 7 6 9 C6.66 9 7.32 9 8 9 C8 9.66 8 10.32 8 11 C8.969375 11.268125 9.93875 11.53625 10.9375 11.8125 C11.948125 12.204375 12.95875 12.59625 14 13 C15.52905452 17.58716355 13.53485192 20.54850737 11.6484375 24.84765625 C8.52410203 30.82239256 4.45216575 36.30155494 -1.875 39.0625 C-7.98570009 40.81527449 -14.34251612 41.23503239 -20.0625 38.1875 C-23 36 -23 36 -24 33 C-23.16946683 30.44634915 -22.59043274 29.30535256 -20.1796875 28.05859375 C-14.74263603 26.59335445 -9.27614454 25.38656883 -3.75 24.3125 C-2.74042236 24.11515259 -2.74042236 24.11515259 -1.71044922 23.91381836 C2.24332694 23.1874451 5.98315683 22.86901598 10 23 C10.33 21.02 10.66 19.04 11 17 C8.69 17 6.38 17 4 17 C4 16.34 4 15.68 4 15 C5.65 15 7.3 15 9 15 C8.505 14.01 8.505 14.01 8 13 C-2.21150669 13.04805415 -11.41459319 17.04996119 -20.328125 21.7578125 C-21.20984375 22.16773438 -22.0915625 22.57765625 -23 23 C-23.66 22.67 -24.32 22.34 -25 22 C-16.47557375 16.6190715 -7.70586102 11.88552625 2 9 C1.34 6.03 0.68 3.06 0 0 Z " fill="#F9FBF9" transform="translate(280,224)"/>
<path d="M0 0 C0.99 0.33 1.98 0.66 3 1 C2.34 1 1.68 1 1 1 C1 23.77 1 46.54 1 70 C9.415 71.485 9.415 71.485 18 73 C21.49866438 73.89110032 24.88389358 74.7909314 28.3125 75.875 C29.15079346 76.134021 29.98908691 76.39304199 30.8527832 76.65991211 C40.77765571 79.78687426 50.04273444 83.68445099 59 89 C59 89.99 59 90.98 59 92 C54.10183064 90.92964041 49.21906726 89.81919566 44.34765625 88.6328125 C28.98821364 84.92805919 13.64665457 82.17670317 -2 80 C-2 75.38 -2 70.76 -2 66 C-1.67 66 -1.34 66 -1 66 C-0.67 44.22 -0.34 22.44 0 0 Z " fill="#D4EAF4" transform="translate(186,158)"/>
<path d="M0 0 C0.33 0 0.66 0 1 0 C1 20.79 1 41.58 1 63 C6.28 64.32 11.56 65.64 17 67 C19.95590749 68.10122044 22.682507 69.15781145 25.5 70.5 C26.48806641 70.95064819 26.48806641 70.95064819 27.49609375 71.41040039 C32.05009374 73.50197143 36.55563317 75.68522561 41 78 C41 78.66 41 79.32 41 80 C41.7425 80.28875 42.485 80.5775 43.25 80.875 C45.56739797 81.82302644 47.77917115 82.84845911 50 84 C50 84.66 50 85.32 50 86 C49.01 86.33 48.02 86.66 47 87 C45.61300421 86.07462376 44.23078907 85.14122705 42.87451172 84.17138672 C39.07525341 81.7972214 34.78027886 80.51001753 30.5625 79.0625 C29.56855225 78.71767578 28.57460449 78.37285156 27.55053711 78.01757812 C16.89956328 74.4424728 6.0246348 72.09611398 -5 70 C-5.02715383 68.25008666 -5.04646551 66.50005055 -5.0625 64.75 C-5.07410156 63.77546875 -5.08570313 62.8009375 -5.09765625 61.796875 C-5.01055042 59.30216406 -4.92877276 57.31397099 -4 55 C-2.515 54.505 -2.515 54.505 -1 54 C-0.67 36.18 -0.34 18.36 0 0 Z " fill="#30A2EE" transform="translate(194,159)"/>
<path d="M0 0 C1.65 0 3.3 0 5 0 C5 7.26 5 14.52 5 22 C5.66 22 6.32 22 7 22 C7.25394531 21.42765625 7.50789062 20.8553125 7.76953125 20.265625 C10.02237965 16.11752318 13.24363287 12.83244918 17 10 C19.6846545 9.33513247 21.22325837 9.53720973 24 10 C23.04270084 11.12588014 22.08412105 12.2506715 21.125 13.375 C20.59132812 14.00148438 20.05765625 14.62796875 19.5078125 15.2734375 C18.38567993 16.55836651 17.20628025 17.79371975 16 19 C16.27918754 23.00769204 18.84510488 25.97677443 21.0625 29.1875 C25 34.91036907 25 34.91036907 25 36 C21.9375 36.625 21.9375 36.625 18 36 C15.21561499 32.93610144 13.09309861 29.56272105 11 26 C7.64888166 28.23407889 6.18446044 29.26215824 5.1875 33.25 C5.125625 34.1575 5.06375 35.065 5 36 C3.35 36 1.7 36 0 36 C0 24.12 0 12.24 0 0 Z " fill="#13055E" transform="translate(197,289)"/>
<path d="M0 0 C1.87903248 1.87903248 1.13053475 5.0880606 1.1328125 7.58984375 C1.13424759 8.57942833 1.13424759 8.57942833 1.13571167 9.58900452 C1.13639336 10.98699031 1.13453986 12.38497924 1.13037109 13.78295898 C1.12503106 15.92503982 1.13031199 18.06691017 1.13671875 20.20898438 C1.1360578 21.56510463 1.13477629 22.92122476 1.1328125 24.27734375 C1.13168457 25.51734131 1.13055664 26.75733887 1.12939453 28.03491211 C1 31 1 31 0 33 C-2.328125 33.6328125 -2.328125 33.6328125 -5.25 34.125 C-6.68085938 34.37636719 -6.68085938 34.37636719 -8.140625 34.6328125 C-10.84030874 34.9794932 -13.28730697 35.23649119 -16 35 C-18.3125 32.6875 -18.3125 32.6875 -20 30 C-20 29.01 -20 28.02 -20 27 C-16.04 26.67 -12.08 26.34 -8 26 C-8 17.42 -8 8.84 -8 0 C-4.69676014 -1.10107995 -3.29495231 -0.86709271 0 0 Z " fill="#1E67C4" transform="translate(310,195)"/>
<path d="M0 0 C1.98 0 3.96 0 6 0 C6.98838433 2.0372203 7.96532252 4.07999607 8.9375 6.125 C9.48277344 7.26195312 10.02804687 8.39890625 10.58984375 9.5703125 C11.9103119 12.78186661 12.58784221 15.56709079 13 19 C13.66 19 14.32 19 15 19 C15.1134375 18.31421875 15.226875 17.6284375 15.34375 16.921875 C16.10167983 13.54728264 17.24597273 10.47255845 18.5 7.25 C18.9434375 6.10015625 19.386875 4.9503125 19.84375 3.765625 C21 1 21 1 22 0 C23.99958364 -0.04080783 26.00045254 -0.04254356 28 0 C26.13933929 5.97370019 23.91117301 11.55844654 21.2578125 17.22265625 C20.04127214 19.90886804 18.97847389 22.61682902 17.9375 25.375 C16.42623375 29.14716853 15.10233996 32.25221318 12 35 C8.37061908 35.9721556 6.09964462 36.42294024 2.5625 35.0625 C1.7890625 34.5365625 1.7890625 34.5365625 1 34 C1.33 32.68 1.66 31.36 2 30 C5.96 29.505 5.96 29.505 10 29 C8.73688804 22.34539435 6.75616956 16.6760771 3.875 10.5625 C3.14003743 8.981949 2.40810641 7.39998363 1.6796875 5.81640625 C1.35726074 5.13006104 1.03483398 4.44371582 0.70263672 3.73657227 C0 2 0 2 0 0 Z " fill="#2490E6" transform="translate(273,299)"/>
<path d="M0 0 C3.31036259 5.0246575 2.45421179 11.24665066 2 17 C0.89226607 21.76477332 -1.29561578 25.94342366 -4 30 C-4.35964844 30.57878906 -4.71929687 31.15757812 -5.08984375 31.75390625 C-7.82910735 35.94594224 -10.09315974 38.36438658 -15 40 C-19.44770373 40.71737157 -21.55127543 40.99383495 -25.2890625 38.4296875 C-27.28233291 36.68997799 -29.16908513 34.90882614 -31 33 C-30.67 31.35 -30.34 29.7 -30 28 C-29.34 28.99 -28.68 29.98 -28 31 C-27.01 32.32 -26.02 33.64 -25 35 C-17.08 34.505 -17.08 34.505 -9 34 C-9 22.78 -9 11.56 -9 0 C-2.77659574 -1.24468085 -2.77659574 -1.24468085 0 0 Z " fill="#F3F7FA" transform="translate(319,194)"/>
<path d="M0 0 C1.485 5.445 1.485 5.445 3 11 C1.845 11.495 0.69 11.99 -0.5 12.5 C-5.14623766 14.56417246 -9.7010568 16.79425983 -14.25 19.0625 C-14.93513672 19.4028125 -15.62027344 19.743125 -16.32617188 20.09375 C-19.26498731 21.56745842 -22.07672919 23.04853226 -24.859375 24.80859375 C-25.56578125 25.20175781 -26.2721875 25.59492188 -27 26 C-27.66 25.67 -28.32 25.34 -29 25 C-21.73121733 17.19645675 -14.83140179 12.21345791 -5 8 C-13.58 8.33 -22.16 8.66 -31 9 C-31 7.35 -31 5.7 -31 4 C-25.46912527 2.22594584 -20.14782065 1.42522197 -14.375 0.875 C-13.54226563 0.78863281 -12.70953125 0.70226562 -11.8515625 0.61328125 C-7.84950031 0.21180049 -4.03996948 0 0 0 Z " fill="#26A3E8" transform="translate(280,222)"/>
<path d="M0 0 C1.69133808 0.95478763 3.32146984 2.01639656 4.9375 3.09375 C4.6075 4.41375 4.2775 5.73375 3.9375 7.09375 C2.7 6.84625 2.7 6.84625 1.4375 6.59375 C-5.45819812 5.47828165 -5.45819812 5.47828165 -12.0625 7.09375 C-14.12405703 11.21686407 -13.478708 15.845126 -12.0625 20.09375 C-10.62715159 20.3164246 -9.18904475 20.52136906 -7.75 20.71875 C-6.94949219 20.83476562 -6.14898437 20.95078125 -5.32421875 21.0703125 C-2.77526785 21.30908407 -2.77526785 21.30908407 -0.0625 19.09375 C2.625 19.46875 2.625 19.46875 4.9375 20.09375 C4.64676678 22.90417113 4.12186938 23.92722282 2 25.84375 C-2.40744997 27.64270917 -6.3667083 27.77102765 -11.0625 27.09375 C-15.46858743 24.93076163 -18.2612497 22.69694521 -20.0625 18.09375 C-20.60224617 13.55088637 -20.59416964 9.5323855 -19 5.21875 C-13.89454438 -0.38078197 -7.21440334 -3.16996511 0 0 Z " fill="#7CAE11" transform="translate(390.0625,298.90625)"/>
<path d="M0 0 C1.65 0 3.3 0 5 0 C5 19.47 5 38.94 5 59 C3.68 58.01 2.36 57.02 1 56 C0.67 56.99 0.34 57.98 0 59 C0 39.53 0 20.06 0 0 Z " fill="#6EB301" transform="translate(178,169)"/>
<path d="M0 0 C1.65 0 3.3 0 5 0 C5.07347656 1.57587891 5.07347656 1.57587891 5.1484375 3.18359375 C5.53376426 10.65875491 6.05427553 17.73596197 8 25 C8.66 25 9.32 25 10 25 C10.33 26.65 10.66 28.3 11 30 C11.639375 30.103125 12.27875 30.20625 12.9375 30.3125 C13.9584375 30.6528125 13.9584375 30.6528125 15 31 C15.33 31.99 15.66 32.98 16 34 C19.91031269 36.64951093 24.30943359 38.4136792 29 39 C29 39.66 29 40.32 29 41 C29.66 41.33 30.32 41.66 31 42 C23.10156946 42.66435397 17.40918067 41.91867354 11 37 C10.67 36.34 10.34 35.68 10 35 C7.97536745 34.34786708 7.97536745 34.34786708 6 34 C6 33.01 6 32.02 6 31 C5.34 31 4.68 31 4 31 C4 29.02 4 27.04 4 25 C3.34 24.67 2.68 24.34 2 24 C2.33 23.01 2.66 22.02 3 21 C2.01 20.67 1.02 20.34 0 20 C0.66 19.67 1.32 19.34 2 19 C1.7834375 18.19949219 1.7834375 18.19949219 1.5625 17.3828125 C0.09631589 11.49771237 -0.22734497 6.04990224 0 0 Z " fill="#3A7DB6" transform="translate(242,226)"/>
<path d="M0 0 C2.5625 0.1875 2.5625 0.1875 4.5625 2.1875 C4.875 4.6875 4.875 4.6875 4.5625 7.1875 C1.5625 9.1875 1.5625 9.1875 -1.125 8.8125 C-1.888125 8.60625 -2.65125 8.4 -3.4375 8.1875 C-3.4375 7.5275 -3.4375 6.8675 -3.4375 6.1875 C-8.86727881 8.69355176 -11.25672506 10.7242097 -13.7109375 16.1875 C-16.75279806 24.56079359 -16.236283 34.80316294 -13.4375 43.1875 C-11.73048694 45.05614709 -9.99942603 46.37035151 -7.92578125 47.80859375 C-6.4375 49.1875 -6.4375 49.1875 -6 53.0625 C-6.2165625 54.609375 -6.2165625 54.609375 -6.4375 56.1875 C-7.77605056 55.40468695 -9.10823644 54.61098123 -10.4375 53.8125 C-11.18 53.37164062 -11.9225 52.93078125 -12.6875 52.4765625 C-13.265 52.05117187 -13.8425 51.62578125 -14.4375 51.1875 C-14.4375 50.5275 -14.4375 49.8675 -14.4375 49.1875 C-15.0975 49.1875 -15.7575 49.1875 -16.4375 49.1875 C-20.38748798 42.64533241 -20.93896657 37.76521707 -20.4375 30.1875 C-19.7775 30.1875 -19.1175 30.1875 -18.4375 30.1875 C-18.39882813 29.27871094 -18.39882813 29.27871094 -18.359375 28.3515625 C-17.83270641 20.57123112 -16.4893322 12.46197247 -10.375 7.0625 C-7.4375 5.1875 -7.4375 5.1875 -4.4375 5.1875 C-4.293125 4.548125 -4.14875 3.90875 -4 3.25 C-3.20291662 0.32736095 -3.07875941 0.23682765 0 0 Z " fill="#3D87BA" transform="translate(302.4375,183.8125)"/>
<path d="M0 0 C2.12890625 0.4140625 2.12890625 0.4140625 4.69140625 1.9765625 C6.66194248 5.31790653 6.53819499 7.59403425 6.12890625 11.4140625 C5.27346217 14.05168174 4.62642919 15.05868897 2.37890625 16.6640625 C-0.68782747 17.68630707 -2.65437305 17.93924139 -5.87109375 17.4140625 C-9.03828045 14.52228333 -10.65317381 12.6005155 -11.43359375 8.3515625 C-10.10057156 1.39022441 -6.67141858 -0.41765059 0 0 Z " fill="#F8F8F9" transform="translate(113.87109375,303.5859375)"/>
<path d="M0 0 C2.5625 1.5 2.5625 1.5 4 4 C4.7152453 9.00671711 4.81148802 10.85436985 1.875 15 C-1 17 -1 17 -4 17.5625 C-7.92509607 16.82654449 -9.46508106 16.13137045 -12 13 C-12.70542068 8.9338487 -13.20797834 4.71600661 -10.74609375 1.21875 C-7.473951 -1.06516172 -3.81026298 -0.5983626 0 0 Z " fill="#F7F7F9" transform="translate(181,304)"/>
<path d="M0 0 C2.5 1.4375 2.5 1.4375 4 4 C4.60303852 7.1300571 4.65919094 9.87600818 4 13 C1.42506202 16.10507227 -0.08697847 16.86956835 -4.0625 17.4375 C-7.31059514 16.95374115 -8.69411274 16.30588726 -11 14 C-12.19754817 10.40735548 -12.33094958 7.77282526 -12 4 C-9.09676092 -0.71776351 -5.0973239 -0.99230691 0 0 Z " fill="#FCFDFA" transform="translate(321,304)"/>
<path d="M0 0 C2.0625 1.4375 2.0625 1.4375 3 4 C3.49705469 7.11373343 3.6037048 9.89604609 3 13 C0.46228253 16.06018871 -1.11734319 16.83450185 -5 17.5625 C-9.17033126 16.78056289 -10.55871269 15.44652326 -13 12 C-13.88254888 8.12445927 -13.5746689 4.99942417 -11.5625 1.5 C-7.75633038 -0.72800173 -4.30059235 -0.77378082 0 0 Z " fill="#F8F8FA" transform="translate(149,304)"/>
<path d="M0 0 C14.80449026 0.0365543 30.72471737 1.96912901 44 9 C44 10.98 44 12.96 44 15 C44.66 15 45.32 15 46 15 C46 15.99 46 16.98 46 18 C40.49411765 17.51058824 40.49411765 17.51058824 38.125 15.0625 C37 13 37 13 37 11 C35.76636719 10.83564453 35.76636719 10.83564453 34.5078125 10.66796875 C27.43663724 9.66363323 20.76682398 8.29124965 14 6 C14 5.34 14 4.68 14 4 C9.38 4 4.76 4 0 4 C0 2.68 0 1.36 0 0 Z " fill="#78C40F" transform="translate(202,242)"/>
<path d="M0 0 C2.1640625 0.4140625 2.1640625 0.4140625 4.7265625 2.5390625 C6.41826019 5.92245788 6.78602181 7.68230664 6.1640625 11.4140625 C4.08961572 15.14806671 2.80734596 16.20353337 -1.2734375 17.5390625 C-4.8359375 17.4140625 -4.8359375 17.4140625 -7.7734375 15.5390625 C-10.18870928 11.8795598 -10.36301508 9.77249488 -10.3046875 5.5 C-9.04431806 -0.10864401 -4.97245651 -0.17816619 0 0 Z " fill="#F9FBF5" transform="translate(353.8359375,303.5859375)"/>
<path d="M0 0 C0.38218767 1.65614657 0.71395102 3.32457024 1 5 C0.67 5.33 0.34 5.66 0 6 C0.66 6.33 1.32 6.66 2 7 C2 7.66 2 8.32 2 9 C5.3 9 8.6 9 12 9 C9.42910393 11.57089607 7.53851107 11.73220986 4 12.5 C2.84113281 12.75394531 1.68226563 13.00789062 0.48828125 13.26953125 C-4.00219284 14.20986569 -8.49426869 15.13546916 -13 16 C-13 14.35 -13 12.7 -13 11 C-13.66 11 -14.32 11 -15 11 C-15 10.34 -15 9.68 -15 9 C-17.64 9 -20.28 9 -23 9 C-22.4375 7.0625 -22.4375 7.0625 -21 5 C-17.375 4.25 -17.375 4.25 -14 4 C-14 5.65 -14 7.3 -14 9 C-12.35 8.67 -10.7 8.34 -9 8 C-8.34 5.69 -7.68 3.38 -7 1 C-4.50935112 0.31292445 -2.62113708 0 0 0 Z " fill="#266DBE" transform="translate(270,164)"/>
<path d="M0 0 C2.31 0 4.62 0 7 0 C7 20.13 7 40.26 7 61 C6.67 61 6.34 61 6 61 C5.67 43.84 5.34 26.68 5 9 C3.61666667 10.18333333 3.61666667 10.18333333 3.5 13.5 C3 17 3 17 2 18 C1.90666295 19.59610982 1.88254628 21.19633428 1.88647461 22.79516602 C1.88655014 23.81614883 1.88662567 24.83713165 1.88670349 25.88905334 C1.89186478 26.9994548 1.89702606 28.10985626 1.90234375 29.25390625 C1.9037587 30.38448959 1.90517365 31.51507294 1.90663147 32.67991638 C1.91224981 36.30747065 1.92480542 39.93496424 1.9375 43.5625 C1.94251264 46.01497307 1.94707595 48.4674471 1.95117188 50.91992188 C1.9622252 56.94663545 1.97898116 62.97331339 2 69 C1.34 69 0.68 69 0 69 C0 46.23 0 23.46 0 0 Z " fill="#2290EB" transform="translate(187,159)"/>
<path d="M0 0 C0.969375 0.185625 1.93875 0.37125 2.9375 0.5625 C1.98020084 1.68838014 1.02162105 2.8131715 0.0625 3.9375 C-0.47117188 4.56398438 -1.00484375 5.19046875 -1.5546875 5.8359375 C-2.67682007 7.12086651 -3.85621975 8.35621975 -5.0625 9.5625 C-4.78331246 13.57019204 -2.21739512 16.53927443 0 19.75 C3.9375 25.47286907 3.9375 25.47286907 3.9375 26.5625 C0.875 27.1875 0.875 27.1875 -3.0625 26.5625 C-5.84688501 23.49860144 -7.96940139 20.12522105 -10.0625 16.5625 C-11.0525 16.8925 -12.0425 17.2225 -13.0625 17.5625 C-13.0625 16.5725 -13.0625 15.5825 -13.0625 14.5625 C-13.7225 14.2325 -14.3825 13.9025 -15.0625 13.5625 C-14.4025 13.2325 -13.7425 12.9025 -13.0625 12.5625 C-13.0625 11.5725 -13.0625 10.5825 -13.0625 9.5625 C-5.72552753 -0.07039583 -5.72552753 -0.07039583 0 0 Z " fill="#20256F" transform="translate(218.0625,298.4375)"/>
<path d="M0 0 C6 2 6 2 7 3 C6.93440606 5.39119725 6.80689666 7.74215376 6.625 10.125 C6.53476562 11.42695313 6.44453125 12.72890625 6.3515625 14.0703125 C6.12102674 16.64718995 5.81724621 19.21877873 5.43359375 21.77734375 C4.98259837 25.12933642 5.27855031 27.71339584 6 31 C4.02 31.33 2.04 31.66 0 32 C-3 28.25 -3 28.25 -3 26 C-2.34 25.67 -1.68 25.34 -1 25 C-0.67 16.75 -0.34 8.5 0 0 Z " fill="#1464CA" transform="translate(303,196)"/>
<path d="M0 0 C3.44021841 1.14673947 4.91577712 2.03399052 7 5 C7.60605429 8.63632575 7.47161336 10.28314769 5.4375 13.375 C2.04129157 15.63913895 -0.00099302 15.64269755 -4 15 C-6.5 12.875 -6.5 12.875 -8 10 C-8 6.35447228 -7.38319047 4.55349734 -5.3125 1.5625 C-3 0 -3 0 0 0 Z " fill="#389ED7" transform="translate(328,224)"/>
<path d="M0 0 C0.33 0 0.66 0 1 0 C1 9.24 1 18.48 1 28 C-2 29 -2 29 -4.66796875 27.94921875 C-7 26 -7 26 -7.48828125 23.08203125 C-7.43027344 22.00308594 -7.37226563 20.92414063 -7.3125 19.8125 C-7.26738281 18.72582031 -7.22226562 17.63914063 -7.17578125 16.51953125 C-7.11777344 15.68808594 -7.05976563 14.85664063 -7 14 C-8.32 13.67 -9.64 13.34 -11 13 C-10.38125 12.4225 -9.7625 11.845 -9.125 11.25 C-7.18652947 9.19750179 -6.09985751 7.56633418 -5 5 C-4.01 5 -3.02 5 -2 5 C-1.67 8.3 -1.34 11.6 -1 15 C-0.67 10.05 -0.34 5.1 0 0 Z " fill="#2E72C2" transform="translate(310,155)"/>
<path d="M0 0 C1.65 0 3.3 0 5 0 C5 0.99 5 1.98 5 3 C6.65 3.33 8.3 3.66 10 4 C9.5155542 4.40323486 9.0311084 4.80646973 8.53198242 5.22192383 C6.63082835 7.42847445 6.5848884 8.57032554 6.48828125 11.44921875 C6.45283203 12.29677734 6.41738281 13.14433594 6.38085938 14.01757812 C6.35830078 14.89865234 6.33574219 15.77972656 6.3125 16.6875 C6.27833984 17.58017578 6.24417969 18.47285156 6.20898438 19.39257812 C6.12654352 21.59492671 6.05738449 23.79687938 6 26 C4.02 26 2.04 26 0 26 C0 17.42 0 8.84 0 0 Z " fill="#1587E5" transform="translate(227,299)"/>
<path d="M0 0 C1.4550293 0.01353516 1.4550293 0.01353516 2.93945312 0.02734375 C5.31406407 0.05073893 7.68814776 0.08351824 10.0625 0.125 C10.3925 1.445 10.7225 2.765 11.0625 4.125 C7.77754284 5.76747858 4.11322322 5.79507431 0.5 6.1875 C-0.27408203 6.27837891 -1.04816406 6.36925781 -1.84570312 6.46289062 C-7.24043129 7.06030848 -12.51022176 7.20632785 -17.9375 7.125 C-17.9375 5.475 -17.9375 3.825 -17.9375 2.125 C-11.8759737 -0.01040594 -6.38873306 -0.11353866 0 0 Z " fill="#3578CC" transform="translate(266.9375,223.875)"/>
<path d="M0 0 C3 1 3 1 4.6875 3.9375 C6 7 6 7 6 9 C6.66 9 7.32 9 8 9 C8 9.66 8 10.32 8 11 C8.969375 11.268125 9.93875 11.53625 10.9375 11.8125 C11.948125 12.204375 12.95875 12.59625 14 13 C15.25541557 16.76624671 14.37061958 18.37188934 13 22 C12.01 22 11.02 22 10 22 C10.33 20.35 10.66 18.7 11 17 C8.69 17 6.38 17 4 17 C4 16.34 4 15.68 4 15 C5.65 15 7.3 15 9 15 C8.505 14.01 8.505 14.01 8 13 C-2.21150669 13.04805415 -11.41459319 17.04996119 -20.328125 21.7578125 C-21.20984375 22.16773438 -22.0915625 22.57765625 -23 23 C-23.66 22.67 -24.32 22.34 -25 22 C-16.47557375 16.6190715 -7.70586102 11.88552625 2 9 C1.34 6.03 0.68 3.06 0 0 Z " fill="#E6F2EE" transform="translate(280,224)"/>
<path d="M0 0 C37.8102981 5.8102981 37.8102981 5.8102981 46 14 C40.77571005 13.33496571 35.73961879 12.3072488 30.625 11.0625 C29.11203775 10.70157726 27.59901754 10.34089738 26.0859375 9.98046875 C23.84093081 9.44229611 21.59621609 8.90292511 19.3515625 8.36328125 C12.96049537 6.87836788 6.49026433 5.94294412 0 5 C0 3.35 0 1.7 0 0 Z " fill="#72C326" transform="translate(189,231)"/>
<path d="M0 0 C0.495 1.485 0.495 1.485 1 3 C-0.65 3 -2.3 3 -4 3 C-4 3.66 -4 4.32 -4 5 C-3.01 5.33 -2.02 5.66 -1 6 C-2.93939453 6.36351562 -2.93939453 6.36351562 -4.91796875 6.734375 C-13.9353788 8.45987517 -22.74105109 10.28553135 -31.46875 13.16796875 C-33.63504166 13.88003684 -35.78079827 14.48183733 -38 15 C-38.33 14.01 -38.66 13.02 -39 12 C-35.9519425 10.95919988 -32.93488978 9.98340328 -29.8125 9.1875 C-26.55833733 8.17390835 -23.70331045 6.99646888 -20.625 5.5625 C-7.40004636 -0.56923434 -7.40004636 -0.56923434 0 0 Z " fill="#DAF0CE" transform="translate(288,236)"/>
<path d="M0 0 C0.33 0.66 0.66 1.32 1 2 C1.66 2.33 2.32 2.66 3 3 C2.401875 3.556875 1.80375 4.11375 1.1875 4.6875 C-1.06583701 6.88924328 -1.06583701 6.88924328 -2.4375 9.5 C-4.60252061 12.96403297 -7.35719858 15.17859929 -11 17 C-17.47058824 17.35294118 -17.47058824 17.35294118 -21 15 C-20.43410156 14.61328125 -19.86820312 14.2265625 -19.28515625 13.828125 C-18.55167969 13.30734375 -17.81820313 12.7865625 -17.0625 12.25 C-16.33160156 11.73953125 -15.60070312 11.2290625 -14.84765625 10.703125 C-12.59630349 8.94055711 -12.59630349 8.94055711 -12 5 C-6.555 4.01 -6.555 4.01 -1 3 C-0.67 2.01 -0.34 1.02 0 0 Z " fill="#0E5FC0" transform="translate(306,154)"/>
<path d="M0 0 C0.33 0 0.66 0 1 0 C1 20.79 1 41.58 1 63 C1.66 63.33 2.32 63.66 3 64 C1.02 64.99 1.02 64.99 -1 66 C0.32 66.66 1.64 67.32 3 68 C3 68.66 3 69.32 3 70 C0.36 70 -2.28 70 -5 70 C-5.02715383 68.25008666 -5.04646551 66.50005055 -5.0625 64.75 C-5.07410156 63.77546875 -5.08570313 62.8009375 -5.09765625 61.796875 C-5.01055042 59.30216406 -4.92877276 57.31397099 -4 55 C-2.515 54.505 -2.515 54.505 -1 54 C-0.67 36.18 -0.34 18.36 0 0 Z " fill="#66ADF0" transform="translate(194,159)"/>
<path d="M0 0 C0.66 0 1.32 0 2 0 C2.433125 1.051875 2.86625 2.10375 3.3125 3.1875 C3.59609375 3.82429688 3.8796875 4.46109375 4.171875 5.1171875 C4.85116915 6.66162042 5.46623525 8.23415215 6.0625 9.8125 C9.20378897 13.35911658 13.45155798 13.42824462 18 14 C17.67 15.65 17.34 17.3 17 19 C7.31877615 19.86097841 7.31877615 19.86097841 3.4375 16.625 C-0.11736567 12.79668312 -0.11710942 11.00828564 -0.0625 5.875 C-0.05347656 4.77929688 -0.04445313 3.68359375 -0.03515625 2.5546875 C-0.02355469 1.71164062 -0.01195312 0.86859375 0 0 Z " fill="#83B816" transform="translate(304,307)"/>
<path d="M0 0 C1.65 0 3.3 0 5 0 C5.04898438 1.07378906 5.09796875 2.14757812 5.1484375 3.25390625 C5.22353398 4.69012642 5.29907876 6.12632319 5.375 7.5625 C5.4059375 8.26697266 5.436875 8.97144531 5.46875 9.69726562 C5.72822616 14.38945954 6.61341551 18.48241827 8 23 C8.125 25.9375 8.125 25.9375 8 28 C7.34 28 6.68 28 6 28 C6 27.34 6 26.68 6 26 C4.68 25.34 3.36 24.68 2 24 C2.33 23.01 2.66 22.02 3 21 C2.01 20.67 1.02 20.34 0 20 C0.66 19.67 1.32 19.34 2 19 C1.7834375 18.19949219 1.7834375 18.19949219 1.5625 17.3828125 C0.09631589 11.49771237 -0.22734497 6.04990224 0 0 Z " fill="#598EC4" transform="translate(242,226)"/>
<path d="M0 0 C2.60334924 2.71182212 2.99456691 3.89133813 3.1875 7.75 C3.0946875 9.35875 3.0946875 9.35875 3 11 C-3.69613196 11.797837 -10.25766581 12.12910853 -17 12 C-16.79296875 10.08984375 -16.79296875 10.08984375 -16 8 C-13.92578125 7.12890625 -13.92578125 7.12890625 -11.3125 6.5625 C-6.3409265 5.27859293 -3.65542685 3.55923141 0 0 Z " fill="#68B421" transform="translate(317,233)"/>
<path d="M0 0 C3.40667322 0.44824648 5.07914607 1.05276405 8 3 C9.95214625 3.31478577 9.95214625 3.31478577 12 3.25 C12.680625 3.25515625 13.36125 3.2603125 14.0625 3.265625 C16.32416007 3.09917603 16.32416007 3.09917603 19 1 C19.99 1 20.98 1 22 1 C21.77347501 4.17134992 20.9392256 5.05609944 18.5625 7.25 C13.88576805 9.54734201 10.12063188 9.69981969 5 9 C1.9375 7.8125 1.9375 7.8125 0 6 C-0.875 3.375 -0.875 3.375 -1 1 C-0.67 0.67 -0.34 0.34 0 0 Z " fill="#79AE09" transform="translate(341,317)"/>
<path d="M0 0 C1.65 0 3.3 0 5 0 C5.76140684 7.61406844 5.76140684 7.61406844 3.95703125 10.8984375 C2.17646218 13.03929768 0.50485776 14.74757112 -2 16 C-3.70702735 16.06996014 -5.41668003 16.08440154 -7.125 16.0625 C-8.03507813 16.05347656 -8.94515625 16.04445313 -9.8828125 16.03515625 C-10.93082031 16.01775391 -10.93082031 16.01775391 -12 16 C-12.33 14.68 -12.66 13.36 -13 12 C-11.01432292 11.77213542 -9.02864583 11.54427083 -7.04296875 11.31640625 C-4.80603607 11.02829265 -4.80603607 11.02829265 -2 10 C-1.34 6.7 -0.68 3.4 0 0 Z " fill="#1A0958" transform="translate(185,309)"/>
<path d="M0 0 C3.0625 0.1875 3.0625 0.1875 5.0625 2.1875 C5.75687747 4.17804876 6.41860218 6.18005385 7.0625 8.1875 C7.59875 9.30125 8.135 10.415 8.6875 11.5625 C11.80092356 19.77061666 9.34605579 27.03194362 7.0625 35.1875 C6.4025 34.5275 5.7425 33.8675 5.0625 33.1875 C5.3925 32.300625 5.7225 31.41375 6.0625 30.5 C7.77212987 24.54071873 8.49498569 16.5648605 6.046875 10.79296875 C5.72203125 10.26316406 5.3971875 9.73335937 5.0625 9.1875 C3.391875 9.249375 3.391875 9.249375 1.6875 9.3125 C-1.9375 9.1875 -1.9375 9.1875 -3.9375 7.1875 C-4.125 4.125 -4.125 4.125 -3.9375 1.1875 C-2.9375 0.1875 -2.9375 0.1875 0 0 Z " fill="#3C83AE" transform="translate(312.9375,184.8125)"/>
<path d="M0 0 C1.65 0 3.3 0 5 0 C6.4706777 2.9413554 6.17048999 5.60227405 6.1875 8.875 C6.20167969 10.10992187 6.21585937 11.34484375 6.23046875 12.6171875 C6.01765455 15.74086712 5.65237226 17.40061596 4 20 C3.34 20 2.68 20 2 20 C2 20.66 2 21.32 2 22 C1.34 22 0.68 22 0 22 C0 14.74 0 7.48 0 0 Z " fill="#65B42B" transform="translate(313,196)"/>
<path d="M0 0 C8.10036134 0.54576903 16.01348818 1.54147036 24 3 C24 3.33 24 3.66 24 4 C20.04 3.67 16.08 3.34 12 3 C12 4.32 12 5.64 12 7 C16.62 7 21.24 7 26 7 C26 7.66 26 8.32 26 9 C27.485 9.495 27.485 9.495 29 10 C17.65320446 8.76551067 6.32134013 7.4498719 -5 6 C-5 5.67 -5 5.34 -5 5 C-4.030625 4.87625 -3.06125 4.7525 -2.0625 4.625 C-1.051875 4.41875 -0.04125 4.2125 1 4 C1.33 3.34 1.66 2.68 2 2 C1.34 1.34 0.68 0.68 0 0 Z " fill="#87C41F" transform="translate(190,239)"/>
<path d="M0 0 C0.33 0 0.66 0 1 0 C1.33 1.65 1.66 3.3 2 5 C3.32 4.01 4.64 3.02 6 2 C6.66 4.97 7.32 7.94 8 11 C10.64 11.66 13.28 12.32 16 13 C14.68 13.99 13.36 14.98 12 16 C13.98 16.33 15.96 16.66 18 17 C18 17.33 18 17.66 18 18 C8.17431193 18.57798165 8.17431193 18.57798165 4 15 C0.11642265 10.59161489 -0.40129681 7.39949528 -0.140625 1.7578125 C-0.09421875 1.17773438 -0.0478125 0.59765625 0 0 Z " fill="#25175F" transform="translate(130,308)"/>
<path d="M0 0 C3.19921875 0.2265625 3.19921875 0.2265625 7 1 C8.89685547 1.32097656 8.89685547 1.32097656 10.83203125 1.6484375 C17.59983086 2.86709559 24.19701843 4.18720868 30.75 6.3125 C33.82221263 7.25123164 36.93630458 7.87170958 40.08984375 8.47265625 C42 9 42 9 45 11 C44.67 11.66 44.34 12.32 44 13 C43.4644751 12.83918945 42.9289502 12.67837891 42.37719727 12.51269531 C27.39579808 8.0744657 12.46754872 5.16196352 -3 3 C-1.69995117 1.48583984 -1.69995117 1.48583984 0 0 Z " fill="#D8F0C5" transform="translate(198,237)"/>
<path d="M0 0 C2.31 0 4.62 0 7 0 C7 5.61 7 11.22 7 17 C5.68 16.01 4.36 15.02 3 14 C2.01 13.67 1.02 13.34 0 13 C0 8.71 0 4.42 0 0 Z " fill="#69A718" transform="translate(313,169)"/>
<path d="M0 0 C1.98 0 3.96 0 6 0 C4.25192871 5.46737191 2.34205919 10.75824848 0 16 C-1.98 16 -3.96 16 -6 16 C-4.43551329 10.3856009 -2.83604813 5.13189662 0 0 Z " fill="#2C9CE9" transform="translate(295,299)"/>
<path d="M0 0 C1.65 0 3.3 0 5 0 C5 6.27 5 12.54 5 19 C3.35 19 1.7 19 0 19 C0 12.73 0 6.46 0 0 Z " fill="#268EEC" transform="translate(246,306)"/>
<path d="M0 0 C0.99 0 1.98 0 3 0 C3.12585774 7.55146416 3.12585774 7.55146416 2.50099182 9.77838135 C1.89426017 12.46889701 1.88037076 14.92758395 1.88647461 17.68652344 C1.88655014 18.82740417 1.88662567 19.96828491 1.88670349 21.14373779 C1.89186478 22.36989807 1.89702606 23.59605835 1.90234375 24.859375 C1.9037587 26.11888977 1.90517365 27.37840454 1.90663147 28.67608643 C1.91127927 32.01665119 1.92025719 35.35714721 1.93133545 38.69769287 C1.94158402 42.1096538 1.94613646 45.52162185 1.95117188 48.93359375 C1.96220037 55.6224148 1.97893811 62.31120343 2 69 C1.34 69 0.68 69 0 69 C0 46.23 0 23.46 0 0 Z " fill="#1897EB" transform="translate(187,159)"/>
<path d="M0 0 C26.19650995 6.57585862 26.19650995 6.57585862 35 14 C35 14.99 35 15.98 35 17 C34.34 17 33.68 17 33 17 C32.55527344 16.55269531 32.11054688 16.10539062 31.65234375 15.64453125 C23.91752984 7.94628856 9.21285808 5.89802042 -1 3 C-0.67 2.01 -0.34 1.02 0 0 Z " fill="#E4F6F0" transform="translate(210,233)"/>
<path d="M0 0 C1.3303125 0.39638672 1.3303125 0.39638672 2.6875 0.80078125 C5 1.6875 5 1.6875 7 3.6875 C6.34 3.6875 5.68 3.6875 5 3.6875 C5.66 5.3375 6.32 6.9875 7 8.6875 C4.39392608 8.06971953 1.79034303 7.44362789 -0.8125 6.8125 C-1.55048828 6.63847656 -2.28847656 6.46445313 -3.04882812 6.28515625 C-6.49717037 5.44257489 -9.01928362 4.67464425 -12 2.6875 C-10.35 2.6875 -8.7 2.6875 -7 2.6875 C-7 1.6975 -7 0.7075 -7 -0.3125 C-4.22057978 -1.70221011 -2.92961386 -0.89847169 0 0 Z " fill="#3BA4F4" transform="translate(216,228.3125)"/>
<path d="M0 0 C0 5.94 0 11.88 0 18 C-2.55859051 15.44140949 -2.37012943 14.1165285 -2.625 10.5625 C-2.69976562 9.59441406 -2.77453125 8.62632812 -2.8515625 7.62890625 C-2.95737356 5.75493674 -3 3.87695437 -3 2 C-3.66 2.66 -4.32 3.32 -5 4 C-7.8203125 4.6328125 -7.8203125 4.6328125 -11.125 5.125 C-12.22070312 5.29257813 -13.31640625 5.46015625 -14.4453125 5.6328125 C-15.70988281 5.81457031 -15.70988281 5.81457031 -17 6 C-17 5.01 -17 4.02 -17 3 C-15.1096624 2.29753005 -13.21243172 1.61359151 -11.3125 0.9375 C-10.25675781 0.55464844 -9.20101563 0.17179688 -8.11328125 -0.22265625 C-5 -1 -5 -1 0 0 Z " fill="#1F66AF" transform="translate(310,154)"/>
<path d="M0 0 C-0.33 1.98 -0.66 3.96 -1 6 C-6.66642551 7.22517308 -12.23708518 7.09228867 -18 7 C-17.67 6.01 -17.34 5.02 -17 4 C-14.19921875 2.83203125 -14.19921875 2.83203125 -10.6875 1.8125 C-9.53636719 1.46832031 -8.38523437 1.12414062 -7.19921875 0.76953125 C-4 0 -4 0 0 0 Z " fill="#71B70C" transform="translate(291,241)"/>
<path d="M0 0 C2.5 0.25 2.5 0.25 4.5 2.25 C4.8125 5.25 4.8125 5.25 4.5 8.25 C1.5 10.25 1.5 10.25 -1.125 9.9375 C-3.5 9.25 -3.5 9.25 -4.5 8.25 C-4.6875 5.3125 -4.6875 5.3125 -4.5 2.25 C-2.5 0.25 -2.5 0.25 0 0 Z " fill="#D4ECF3" transform="translate(327.5,226.75)"/>
<path d="M0 0 C1 1 1 1 1.11352539 3.86743164 C1.10828857 5.11903076 1.10305176 6.37062988 1.09765625 7.66015625 C1.0962413 8.32462265 1.09482635 8.98908905 1.09336853 9.6736908 C1.08775518 11.80333899 1.07520054 13.93288339 1.0625 16.0625 C1.05748671 17.50325369 1.05292351 18.94400903 1.04882812 20.38476562 C1.03778145 23.92321102 1.02050792 27.46159539 1 31 C0.67 31 0.34 31 0 31 C-0.33 22.09 -0.66 13.18 -1 4 C-2.98 3.01 -4.96 2.02 -7 1 C-7 9.25 -7 17.5 -7 26 C-7.33 26 -7.66 26 -8 26 C-8 17.42 -8 8.84 -8 0 C-4.69676014 -1.10107995 -3.29495231 -0.86709271 0 0 Z " fill="#6A96C4" transform="translate(310,195)"/>
<path d="M0 0 C0.33 0.99 0.66 1.98 1 3 C-2.37418714 3.81590057 -5.74948581 4.6271087 -9.125 5.4375 C-10.07632812 5.66759766 -11.02765625 5.89769531 -12.0078125 6.13476562 C-16.65584687 7.24835719 -21.2662196 8.30666853 -26 9 C-24.3765007 5.7530014 -20.9231189 5.18150315 -17.6875 3.9375 C-17.01009766 3.66873047 -16.33269531 3.39996094 -15.63476562 3.12304688 C-10.08127372 0.94616491 -5.95555317 -0.13535348 0 0 Z " fill="#3DCA3F" transform="translate(288,236)"/>
<path d="M0 0 C0.33 0.66 0.66 1.32 1 2 C-1.55327003 5.82990505 -4.3976919 6.5012127 -8.5625 7.9375 C-10.01516369 8.4559837 -11.46699437 8.97680742 -12.91796875 9.5 C-13.61970215 9.75265625 -14.32143555 10.0053125 -15.04443359 10.265625 C-17.54601396 11.20504494 -19.95859538 12.29850732 -22.375 13.4375 C-23.57125 13.953125 -24.7675 14.46875 -26 15 C-26.66 14.67 -27.32 14.34 -28 14 C-21.22458503 9.72311116 -14.35807721 6.16307587 -7 3 C-6.2575 2.67773438 -5.515 2.35546875 -4.75 2.0234375 C-3.16979712 1.34165642 -1.58547734 0.66942377 0 0 Z " fill="#DAF1F4" transform="translate(283,232)"/>
<path d="M0 0 C2.5625 0.1875 2.5625 0.1875 4.5625 2.1875 C4.875 4.6875 4.875 4.6875 4.5625 7.1875 C1.5625 9.1875 1.5625 9.1875 -1.125 8.8125 C-1.888125 8.60625 -2.65125 8.4 -3.4375 8.1875 C-3.4375 7.5275 -3.4375 6.8675 -3.4375 6.1875 C-4.4275 5.8575 -5.4175 5.5275 -6.4375 5.1875 C-5.7775 5.1875 -5.1175 5.1875 -4.4375 5.1875 C-4.2209375 4.2284375 -4.2209375 4.2284375 -4 3.25 C-3.20291662 0.32736095 -3.07875941 0.23682765 0 0 Z " fill="#3A7EB9" transform="translate(302.4375,183.8125)"/>
<path d="M0 0 C5.28 0 10.56 0 16 0 C16 4.29 16 8.58 16 13 C15.67 13 15.34 13 15 13 C15 9.04 15 5.08 15 1 C9.06 1.495 9.06 1.495 3 2 C3.020625 3.27875 3.04125 4.5575 3.0625 5.875 C3.125 9.75 3.125 9.75 2 12 C2.99 12 3.98 12 5 12 C5 12.66 5 13.32 5 14 C3.35 14 1.7 14 0 14 C0 9.38 0 4.76 0 0 Z " fill="#3874BC" transform="translate(237,178)"/>
<path d="M0 0 C1.98 0 3.96 0 6 0 C8.21854707 4.62197306 9.38281159 7.76824163 9 13 C8.67 12.34 8.34 11.68 8 11 C7.21625 10.814375 6.4325 10.62875 5.625 10.4375 C2.42528893 8.68527727 2.29135253 7.74993668 1.1875 4.375 C0.77267189 2.92195569 0.37074916 1.46491133 0 0 Z " fill="#2090EA" transform="translate(273,299)"/>
<path d="M0 0 C6.75 -0.125 6.75 -0.125 9 1 C9 2.98 9 4.96 9 7 C9.66 7 10.32 7 11 7 C11 7.99 11 8.98 11 10 C5.51219512 9.51219512 5.51219512 9.51219512 3.125 7.125 C2 5 2 5 2 2 C1.34 2 0.68 2 0 2 C0 1.34 0 0.68 0 0 Z " fill="#53C008" transform="translate(237,250)"/>
<path d="M0 0 C4.62 0 9.24 0 14 0 C14 4.29 14 8.58 14 13 C17.63 13 21.26 13 25 13 C25.33 12.01 25.66 11.02 26 10 C26.66 10 27.32 10 28 10 C28 7.03 28 4.06 28 1 C28.33 1 28.66 1 29 1 C29 5.29 29 9.58 29 14 C23.72 14 18.44 14 13 14 C13 9.71 13 5.42 13 1 C8.71 1 4.42 1 0 1 C0 0.67 0 0.34 0 0 Z " fill="#3D7AC1" transform="translate(224,207)"/>
<path d="M0 0 C-0.33 1.32 -0.66 2.64 -1 4 C-2.65 4.33 -4.3 4.66 -6 5 C-6.33 5.99 -6.66 6.98 -7 8 C-8.32 8 -9.64 8 -11 8 C-11.625 5.625 -11.625 5.625 -12 3 C-8.48214012 -0.51785988 -4.80656342 -0.10924008 0 0 Z " fill="#4FBF1C" transform="translate(264,248)"/>
<path d="M0 0 C0.33 0 0.66 0 1 0 C1.02578125 0.60328125 1.0515625 1.2065625 1.078125 1.828125 C1.40331983 7.10535339 1.40331983 7.10535339 4.0625 11.5625 C5.0215625 12.2740625 5.0215625 12.2740625 6 13 C5.34 13 4.68 13 4 13 C4.33 14.32 4.66 15.64 5 17 C7.64 17 10.28 17 13 17 C13 17.33 13 17.66 13 18 C8.17143834 18.38628493 4.88514023 18.45837619 0.5 16.1875 C-2 14 -2 14 -3 11 C-2.34 11 -1.68 11 -1 11 C-0.67 7.37 -0.34 3.74 0 0 Z " fill="#32256A" transform="translate(168,308)"/>
<path d="M0 0 C6.07328688 -0.50610724 9.77228537 0.95842058 15 4 C12.75701402 6.24298598 12.07683445 6.58421156 9 7 C6.65885633 6.72686657 4.32249342 6.40197001 2 6 C2 5.01 2 4.02 2 3 C1.34 2.67 0.68 2.34 0 2 C0 1.34 0 0.68 0 0 Z " fill="#20115B" transform="translate(140,298)"/>
<path d="M0 0 C0.33 0.66 0.66 1.32 1 2 C1.66 2.33 2.32 2.66 3 3 C3 5 3 7 3 9 C2.34 9.66 1.68 10.32 1 11 C1.33 11.99 1.66 12.98 2 14 C1.34 14.66 0.68 15.32 0 16 C-2.00215699 11.8705512 -2.33217754 8.56744115 -2 4 C-1 1.5625 -1 1.5625 0 0 Z M4 5 C4.33 5 4.66 5 5 5 C5.33 7.97 5.66 10.94 6 14 C4.68 13.34 3.36 12.68 2 12 C2.66 12 3.32 12 4 12 C4 9.69 4 7.38 4 5 Z " fill="#90BD2F" transform="translate(339,304)"/>
<path d="M0 0 C0.99 0.33 1.98 0.66 3 1 C2.34 5.29 1.68 9.58 1 14 C0.01 13.01 -0.98 12.02 -2 11 C-2 9.68 -2 8.36 -2 7 C-2.66 7 -3.32 7 -4 7 C-4 10.3 -4 13.6 -4 17 C-4.33 17 -4.66 17 -5 17 C-5.76681614 7.42331839 -5.76681614 7.42331839 -3.88671875 3.93359375 C-2.5 2.3125 -2.5 2.3125 0 0 Z " fill="#81BE1F" transform="translate(308,300)"/>
<path d="M0 0 C0.33 2.31 0.66 4.62 1 7 C-0.60463449 6.68991116 -2.20869231 6.37683713 -3.8125 6.0625 C-4.70582031 5.88847656 -5.59914062 5.71445312 -6.51953125 5.53515625 C-9 5 -9 5 -12 4 C-11.67 3.01 -11.34 2.02 -11 1 C-10.34 1 -9.68 1 -9 1 C-6.04335481 -0.4783226 -3.25770263 -0.06032783 0 0 Z " fill="#2B97E8" transform="translate(244,298)"/>
<path d="M0 0 C7.50769231 -0.36923077 7.50769231 -0.36923077 10 1.5 C10.495 2.2425 10.495 2.2425 11 3 C10.67 3.66 10.34 4.32 10 5 C3.95724466 6.36817102 3.95724466 6.36817102 0.5625 5.0625 C0.046875 4.711875 -0.46875 4.36125 -1 4 C-0.67 2.68 -0.34 1.36 0 0 Z " fill="#3290E3" transform="translate(275,329)"/>
<path d="M0 0 C3.56841333 1.18947111 4.20743736 1.74079519 6 5 C6.54122006 7.98959651 6.81219964 10.96929078 7 14 C6.34 14 5.68 14 5 14 C5 13.34 5 12.68 5 12 C3.68 11.34 2.36 10.68 1 10 C1.33 9.01 1.66 8.02 2 7 C1.01 6.67 0.02 6.34 -1 6 C-0.34 5.67 0.32 5.34 1 5 C0.67 3.35 0.34 1.7 0 0 Z " fill="#2E7ED2" transform="translate(243,240)"/>
<path d="M0 0 C0.66 2.97 1.32 5.94 2 9 C-2.21629134 11.10814567 -4.39790775 11.17700355 -9 11 C-8 9 -8 9 -5 8 C-4.67 7.34 -4.34 6.68 -4 6 C-3.34 6 -2.68 6 -2 6 C-2.33 5.01 -2.66 4.02 -3 3 C-5.64 2.67 -8.28 2.34 -11 2 C-11 1.67 -11 1.34 -11 1 C-7.27569643 0.30710631 -3.78916254 -0.11144596 0 0 Z " fill="#2F98EA" transform="translate(280,222)"/>
<path d="M0 0 C1.875 0.25 1.875 0.25 4 1 C7.59927489 6.32340308 6.68735112 14.34992856 5.546875 20.40625 C5.1013177 21.95933544 4.56346084 23.48569898 4 25 C2.68 24.34 1.36 23.68 0 23 C0.66 23 1.32 23 2 23 C3.14982602 18.90996141 3.11094256 14.96822949 3.0625 10.75 C3.05798828 10.00492188 3.05347656 9.25984375 3.04882812 8.4921875 C3.03709246 6.6614236 3.0191585 4.83070127 3 3 C2.01 3 1.02 3 0 3 C0 2.01 0 1.02 0 0 Z " fill="#DBF1E8" transform="translate(315,193)"/>
<path d="M0 0 C-0.29073322 2.81042113 -0.81563062 3.83347282 -2.9375 5.75 C-7.29729941 7.52950996 -11.35153438 7.24370596 -16 7 C-16 6.67 -16 6.34 -16 6 C-15.071875 5.938125 -14.14375 5.87625 -13.1875 5.8125 C-9.82154642 5.32350588 -9.82154642 5.32350588 -8.25 2.5 C-7.8375 1.675 -7.425 0.85 -7 0 C-4.3333581 -1.33332095 -2.83319697 -0.67102033 0 0 Z " fill="#84AC20" transform="translate(395,319)"/>
<path d="M0 0 C4.29 0 8.58 0 13 0 C13.33 1.32 13.66 2.64 14 4 C10.86599115 5.56700442 7.36844905 5.85164561 4 5 C2.68 3.35 1.36 1.7 0 0 Z " fill="#206DDB" transform="translate(264,224)"/>
<path d="M0 0 C0 1.98 0 3.96 0 6 C-2.90600261 7.25664978 -4.79604584 8 -8 8 C-8.1875 5.125 -8.1875 5.125 -8 2 C-4.77208445 -0.1519437 -3.71599191 -0.20086443 0 0 Z " fill="#8EC438" transform="translate(284,198)"/>
<path d="M0 0 C0.99 0 1.98 0 3 0 C2.67 0.99 2.34 1.98 2 3 C-0.3984375 4.16796875 -0.3984375 4.16796875 -3.375 5.1875 C-4.84066406 5.70376953 -4.84066406 5.70376953 -6.3359375 6.23046875 C-9 7 -9 7 -12 7 C-11.75 5.125 -11.75 5.125 -11 3 C-7.79997216 0.62960901 -4.86249399 0.9141668 -1 1 C-0.67 0.67 -0.34 0.34 0 0 Z " fill="#1D97ED" transform="translate(280,231)"/>
<path d="M0 0 C1.32 0 2.64 0 4 0 C4.20086443 3.71599191 4.1519437 4.77208445 2 8 C1.60612212 10.32387947 1.26513915 12.65793749 1 15 C0.01 15.33 -0.98 15.66 -2 16 C-2.33 15.01 -2.66 14.02 -3 13 C-2.01 12.67 -1.02 12.34 0 12 C-0.350625 10.9275 -0.70125 9.855 -1.0625 8.75 C-2.25714286 3.97142857 -2.25714286 3.97142857 -1 1 C-0.67 0.67 -0.34 0.34 0 0 Z " fill="#78B207" transform="translate(342,301)"/>
<path d="M0 0 C0.33 1.32 0.66 2.64 1 4 C-5.435 4.495 -5.435 4.495 -12 5 C-12.33 3.68 -12.66 2.36 -13 1 C-11.58366664 0.83052421 -10.16691467 0.66454493 -8.75 0.5 C-7.56664062 0.36078125 -7.56664062 0.36078125 -6.359375 0.21875 C-4 0 -4 0 0 0 Z " fill="#1A65CD" transform="translate(308,233)"/>
<path d="M0 0 C0 1.98 0 3.96 0 6 C-2.64 6.33 -5.28 6.66 -8 7 C-8 5.02 -8 3.04 -8 1 C-5.29120665 -0.35439668 -2.99066732 -0.06501451 0 0 Z " fill="#8ABE22" transform="translate(284,189)"/>
<path d="M0 0 C0.66 0 1.32 0 2 0 C2 6.27 2 12.54 2 19 C1.01 18.34 0.02 17.68 -1 17 C-1.24950462 14.40990446 -1.32719737 12.0812871 -1.25 9.5 C-1.24484375 8.81035156 -1.2396875 8.12070312 -1.234375 7.41015625 C-1.15483526 2.30967052 -1.15483526 2.30967052 0 0 Z " fill="#3699E5" transform="translate(231,306)"/>
<path d="M0 0 C0.33 0.99 0.66 1.98 1 3 C1.99 3.33 2.98 3.66 4 4 C2.02 6.64 0.04 9.28 -2 12 C-2.33 11.34 -2.66 10.68 -3 10 C-4.32 10.33 -5.64 10.66 -7 11 C-4.69 7.37 -2.38 3.74 0 0 Z " fill="#387BB8" transform="translate(291,248)"/>
<path d="M0 0 C6.17543593 0.48753442 14.54028238 2.54028238 19 7 C13.58609855 6.31697126 8.36322421 5.22293698 3.0625 3.9375 C2.28326172 3.75123047 1.50402344 3.56496094 0.70117188 3.37304688 C-1.19989697 2.91818991 -3.10004657 2.4594938 -5 2 C-4.360625 1.855625 -3.72125 1.71125 -3.0625 1.5625 C-1.02454854 1.18992819 -1.02454854 1.18992819 0 0 Z " fill="#5FCE45" transform="translate(216,238)"/>
<path d="M0 0 C0.04254356 1.99954746 0.04080783 4.00041636 0 6 C-1 7 -1 7 -4.0625 7.0625 C-5.5165625 7.0315625 -5.5165625 7.0315625 -7 7 C-7 5.02 -7 3.04 -7 1 C-4.53721199 -0.231394 -2.7204945 -0.07159196 0 0 Z " fill="#64B923" transform="translate(295,206)"/>
<path d="M0 0 C4.29 0 8.58 0 13 0 C13 0.33 13 0.66 13 1 C9.04 1 5.08 1 1 1 C1.33 3.31 1.66 5.62 2 8 C2.33 8 2.66 8 3 8 C3 9.98 3 11.96 3 14 C5.97 14 8.94 14 12 14 C12 14.33 12 14.66 12 15 C8.04 15 4.08 15 0 15 C0 10.05 0 5.1 0 0 Z " fill="#1260B8" transform="translate(224,192)"/>
<path d="M0 0 C0.66 1.32 1.32 2.64 2 4 C-0.57784846 6.64752004 -2.91648098 8.94432065 -6 11 C-4.68 11.99 -3.36 12.98 -2 14 C-4.8125 14.6875 -4.8125 14.6875 -8 15 C-9.875 13.5625 -9.875 13.5625 -11 12 C-10.67 11.01 -10.34 10.02 -10 9 C-9.01 9 -8.02 9 -7 9 C-2.42372628 6.6238582 -2.42372628 6.6238582 -0.125 2.25 C-0.08375 1.5075 -0.0425 0.765 0 0 Z " fill="#1D6AC6" transform="translate(292,158)"/>
<path d="M0 0 C1.98 0 3.96 0 6 0 C6 5.28 6 10.56 6 16 C1.71 16 -2.58 16 -7 16 C-7 15.67 -7 15.34 -7 15 C-3.7 14.67 -0.4 14.34 3 14 C3.16777183 12.20843648 3.33418294 10.4167455 3.5 8.625 C3.63921875 7.12839844 3.63921875 7.12839844 3.78125 5.6015625 C4.02792947 3.10296264 4.02792947 3.10296264 4 1 C2.68 0.67 1.36 0.34 0 0 Z " fill="#377FC1" transform="translate(260,192)"/>
<path d="M0 0 C1.4540625 0.0309375 1.4540625 0.0309375 2.9375 0.0625 C2.9375 2.0425 2.9375 4.0225 2.9375 6.0625 C0.6275 6.3925 -1.6825 6.7225 -4.0625 7.0625 C-4.10504356 5.06295254 -4.10330783 3.06208364 -4.0625 1.0625 C-3.0625 0.0625 -3.0625 0.0625 0 0 Z " fill="#6AAD0D" transform="translate(292.0625,176.9375)"/>
<path d="M0 0 C5.40548291 1.03682754 10.7391003 2.48514688 16.0625 3.875 C16.0625 4.205 16.0625 4.535 16.0625 4.875 C13.70808284 4.73258352 11.35402516 4.58615192 9 4.4375 C7.68902344 4.35628906 6.37804687 4.27507812 5.02734375 4.19140625 C1.32586762 3.89601751 -2.27120448 3.44234612 -5.9375 2.875 C-4.09827424 0.17025624 -3.32008971 -0.14128041 0 0 Z " fill="#E2F0CD" transform="translate(200.9375,237.125)"/>
<path d="M0 0 C1.4606285 2.64738916 2 3.89448334 2 7 C-1 9.1875 -1 9.1875 -4 11 C-4.66 9.35 -5.32 7.7 -6 6 C-5.01 5.67 -4.02 5.34 -3 5 C-1.8499169 3.03327085 -1.8499169 3.03327085 -1 1 C-0.67 0.67 -0.34 0.34 0 0 Z " fill="#3375BB" transform="translate(313,226)"/>
<path d="M0 0 C1.32 0.33 2.64 0.66 4 1 C3.25 7.75 3.25 7.75 1 10 C0.835 11.175625 0.67 12.35125 0.5 13.5625 C0.335 14.696875 0.17 15.83125 0 17 C-0.66 17.33 -1.32 17.66 -2 18 C-1.42085333 11.98673249 -0.77662055 5.99107278 0 0 Z " fill="#2E8DE4" transform="translate(190,159)"/>
<path d="M0 0 C2 2 2 2 2.1953125 4.1640625 C2.17210937 4.97617187 2.14890625 5.78828125 2.125 6.625 C2.10695312 7.44226563 2.08890625 8.25953125 2.0703125 9.1015625 C2.03550781 10.04128906 2.03550781 10.04128906 2 11 C1.01 10.67 0.02 10.34 -1 10 C-1.99 10.495 -1.99 10.495 -3 11 C-3 10.01 -3 9.02 -3 8 C-3.66 7.67 -4.32 7.34 -5 7 C-4.34 6.67 -3.68 6.34 -3 6 C-3 5.01 -3 4.02 -3 3 C-1.5 1.3125 -1.5 1.3125 0 0 Z " fill="#252072" transform="translate(208,305)"/>
<path d="M0 0 C4.75 0.875 4.75 0.875 7 2 C6.67 3.32 6.34 4.64 6 6 C5.154375 5.855625 4.30875 5.71125 3.4375 5.5625 C-0.03593149 4.9941203 -3.51445662 4.48797607 -7 4 C-7 3.67 -7 3.34 -7 3 C-5.5459375 2.814375 -5.5459375 2.814375 -4.0625 2.625 C-2.5465625 2.315625 -2.5465625 2.315625 -1 2 C-0.67 1.34 -0.34 0.68 0 0 Z " fill="#84B126" transform="translate(388,300)"/>
<path d="M0 0 C0 1.98 0 3.96 0 6 C-2.64 6.33 -5.28 6.66 -8 7 C-8 5.35 -8 3.7 -8 2 C-5.09399739 0.74335022 -3.20395416 0 0 0 Z " fill="#86C44C" transform="translate(273,210)"/>
<path d="M0 0 C2.64 0 5.28 0 8 0 C8 3.63 8 7.26 8 11 C7.01 11 6.02 11 5 11 C3.875 4.25 3.875 4.25 5 2 C3.35 1.67 1.7 1.34 0 1 C0 0.67 0 0.34 0 0 Z " fill="#0960B9" transform="translate(244,179)"/>
<path d="M0 0 C0 1.98 0 3.96 0 6 C-2.64 5.67 -5.28 5.34 -8 5 C-8 3.68 -8 2.36 -8 1 C-5.07175348 0.02391783 -3.04386724 -0.08226668 0 0 Z " fill="#8FBA35" transform="translate(274,182)"/>
<path d="M0 0 C0.33 0.99 0.66 1.98 1 3 C1.66 3 2.32 3 3 3 C3 5.31 3 7.62 3 10 C2.01 10 1.02 10 0 10 C-0.66 10.99 -1.32 11.98 -2 13 C-2 9.37 -2 5.74 -2 2 C-1.34 2 -0.68 2 0 2 C0 1.34 0 0.68 0 0 Z " fill="#4181C6" transform="translate(284,212)"/>
<path d="M0 0 C0 0.33 0 0.66 0 1 C-1.65 1 -3.3 1 -5 1 C-4.24849977 4.27773504 -4.24849977 4.27773504 -1 6 C-5.455 6.495 -5.455 6.495 -10 7 C-9.67 5.68 -9.34 4.36 -9 3 C-9.99 2.67 -10.98 2.34 -12 2 C-8.09971775 -0.60018816 -4.52565431 -0.15085514 0 0 Z " fill="#8ABB27" transform="translate(355,298)"/>
<path d="M0 0 C0 1.98 0 3.96 0 6 C-2.31 6.33 -4.62 6.66 -7 7 C-7 5.35 -7 3.7 -7 2 C-2.25 0 -2.25 0 0 0 Z " fill="#75B310" transform="translate(284,179)"/>
<path d="M0 0 C0.99 0.33 1.98 0.66 3 1 C3.125 8.75 3.125 8.75 2 11 C1.01 11 0.02 11 -1 11 C-1.02688151 9.35425434 -1.04634123 7.70838587 -1.0625 6.0625 C-1.07410156 5.14597656 -1.08570313 4.22945312 -1.09765625 3.28515625 C-1 1 -1 1 0 0 Z " fill="#2566B3" transform="translate(273,157)"/>
<path d="M0 0 C1.98 0 3.96 0 6 0 C5.01 1.485 5.01 1.485 4 3 C3.34 3 2.68 3 2 3 C2.33 6.3 2.66 9.6 3 13 C2.01 13 1.02 13 0 13 C0 8.71 0 4.42 0 0 Z " fill="#61B22C" transform="translate(313,169)"/>
<path d="M0 0 C1.65 0 3.3 0 5 0 C5.125 6.75 5.125 6.75 4 9 C3.34 9 2.68 9 2 9 C-0.29013653 5.5647952 -0.17842973 4.014669 0 0 Z " fill="#83B80B" transform="translate(326,289)"/>
<path d="M0 0 C2.75220373 0.86911697 4.5656698 1.4472161 6.375 3.75 C7.20607725 6.74187809 6.68048336 9.00587323 6 12 C5.67 12 5.34 12 5 12 C4.34 9.36 3.68 6.72 3 4 C0.10491489 4 -1.59696473 5.48229352 -4 7 C-3.6875 5.0625 -3.6875 5.0625 -3 3 C-2.01 2.67 -1.02 2.34 0 2 C0 1.34 0 0.68 0 0 Z " fill="#D5EBE4" transform="translate(315,231)"/>
<path d="M0 0 C0.99 0 1.98 0 3 0 C3.23268915 6.28260706 2.40454548 11.88019467 1 18 C0.67 18 0.34 18 0 18 C0 12.06 0 6.12 0 0 Z " fill="#0F8DE1" transform="translate(187,159)"/>
<path d="M0 0 C0.99 0 1.98 0 3 0 C3 2.97 3 5.94 3 9 C1.68 9.33 0.36 9.66 -1 10 C-1.02689216 8.52093108 -1.04634621 7.04172517 -1.0625 5.5625 C-1.07410156 4.73878906 -1.08570313 3.91507813 -1.09765625 3.06640625 C-1 1 -1 1 0 0 Z " fill="#3470B1" transform="translate(258,162)"/>
<path d="M0 0 C0.99 0 1.98 0 3 0 C3 2.97 3 5.94 3 9 C1.68 9.33 0.36 9.66 -1 10 C-1.02689216 8.52093108 -1.04634621 7.04172517 -1.0625 5.5625 C-1.07410156 4.73878906 -1.08570313 3.91507813 -1.09765625 3.06640625 C-1 1 -1 1 0 0 Z " fill="#105EB7" transform="translate(288,153)"/>
<path d="M0 0 C0.598125 0.350625 1.19625 0.70125 1.8125 1.0625 C1.4825 2.7125 1.1525 4.3625 0.8125 6.0625 C-0.1775 6.3925 -1.1675 6.7225 -2.1875 7.0625 C-5.1875 2.3125 -5.1875 2.3125 -5.1875 0.0625 C-2.1875 -0.9375 -2.1875 -0.9375 0 0 Z " fill="#1C0C58" transform="translate(155.1875,303.9375)"/>
<path d="M0 0 C1.69141656 0.08963062 3.37959602 0.24577676 5.0625 0.4375 C6.44115234 0.59025391 6.44115234 0.59025391 7.84765625 0.74609375 C8.55792969 0.82988281 9.26820313 0.91367187 10 1 C10 1.66 10 2.32 10 3 C10.66 3.33 11.32 3.66 12 4 C10.20906809 4.08086147 8.41710372 4.13912702 6.625 4.1875 C5.12839844 4.23970703 5.12839844 4.23970703 3.6015625 4.29296875 C2.74304688 4.19628906 1.88453125 4.09960938 1 4 C0.34 3.01 -0.32 2.02 -1 1 C-0.67 0.67 -0.34 0.34 0 0 Z " fill="#2365AA" transform="translate(261,264)"/>
<path d="M0 0 C0.66 0 1.32 0 2 0 C2.66 1.98 3.32 3.96 4 6 C3.01 6 2.02 6 1 6 C-0.68798827 7.43750191 -0.68798827 7.43750191 -2 9 C-2 8.01 -2 7.02 -2 6 C-2.66 6 -3.32 6 -4 6 C-4 4.35 -4 2.7 -4 1 C-3.34 1 -2.68 1 -2 1 C-2 1.66 -2 2.32 -2 3 C-1.34 3 -0.68 3 0 3 C0 2.01 0 1.02 0 0 Z " fill="#209A7C" transform="translate(250,251)"/>
<path d="M0 0 C4.455 0.99 4.455 0.99 9 2 C9 2.33 9 2.66 9 3 C7.35 3 5.7 3 4 3 C4 3.66 4 4.32 4 5 C4.66 5.33 5.32 5.66 6 6 C1.71 5.34 -2.58 4.68 -7 4 C-7 3.67 -7 3.34 -7 3 C-4.69 3 -2.38 3 0 3 C0 2.01 0 1.02 0 0 Z " fill="#77CA29" transform="translate(233,247)"/>
<path d="M0 0 C5.75 0.875 5.75 0.875 8 2 C8 3.32 8 4.64 8 6 C3.50347222 6.36458333 3.50347222 6.36458333 1.1875 4.6875 C0 3 0 3 0 0 Z " fill="#27A0F2" transform="translate(221,232)"/>
<path d="M0 0 C-0.33 1.98 -0.66 3.96 -1 6 C-2.65 6.33 -4.3 6.66 -6 7 C-6 5.02 -6 3.04 -6 1 C-4 0 -4 0 0 0 Z " fill="#58C023" transform="translate(282,208)"/>
<path d="M0 0 C-1.50223584 4.20626034 -4.28550034 5.73900021 -8 8 C-8.1875 5.125 -8.1875 5.125 -8 2 C-4.77208445 -0.1519437 -3.71599191 -0.20086443 0 0 Z " fill="#6DC244" transform="translate(295,186)"/>
<path d="M0 0 C0.680625 0.845625 1.36125 1.69125 2.0625 2.5625 C4.85416667 5.4375 4.85416667 5.4375 8.8125 4.8125 C9.864375 4.544375 10.91625 4.27625 12 4 C11.34 5.32 10.68 6.64 10 8 C3.59181818 8.36272727 3.59181818 8.36272727 1.0625 6.8125 C-0.32851983 4.43958382 -0.21917317 2.70313576 0 0 Z " fill="#1B94D3" transform="translate(321,231)"/>
<path d="M0 0 C1.65 0 3.3 0 5 0 C5.33 1.98 5.66 3.96 6 6 C2.25 7.125 2.25 7.125 0 6 C0 4.02 0 2.04 0 0 Z " fill="#1D68CC" transform="translate(300,184)"/>
<path d="M0 0 C0.33 0 0.66 0 1 0 C1 2.97 1 5.94 1 9 C3.31 9.33 5.62 9.66 8 10 C8 10.66 8 11.32 8 12 C8.66 12.33 9.32 12.66 10 13 C9.01 13 8.02 13 7 13 C7 12.34 7 11.68 7 11 C4.66924071 11.95865509 4.66924071 11.95865509 3 15 C-0.77755334 10.27805833 -0.30096975 5.74071928 0 0 Z " fill="#89B72C" transform="translate(370,307)"/>
<path d="M0 0 C0.33 0 0.66 0 1 0 C1.33 2.31 1.66 4.62 2 7 C2.99 7 3.98 7 5 7 C4.67 8.98 4.34 10.96 4 13 C3.01 13 2.02 13 1 13 C-0.32229189 10.35541621 -0.09677194 8.32238699 -0.0625 5.375 C-0.05347656 4.37210937 -0.04445312 3.36921875 -0.03515625 2.3359375 C-0.02355469 1.56507813 -0.01195312 0.79421875 0 0 Z " fill="#22135D" transform="translate(163,306)"/>
<path d="M0 0 C0.78375 0.04125 1.5675 0.0825 2.375 0.125 C2.375 0.785 2.375 1.445 2.375 2.125 C1.055 2.455 -0.265 2.785 -1.625 3.125 C-1.625 4.445 -1.625 5.765 -1.625 7.125 C-0.635 7.455 0.355 7.785 1.375 8.125 C1.375 8.785 1.375 9.445 1.375 10.125 C-3.5 9.25 -3.5 9.25 -4.625 8.125 C-4.8125 5.1875 -4.8125 5.1875 -4.625 2.125 C-2.625 0.125 -2.625 0.125 0 0 Z " fill="#E0F1F7" transform="translate(327.625,226.875)"/>
<path d="M0 0 C0.99 0 1.98 0 3 0 C3 3.96 3 7.92 3 12 C2.34 12 1.68 12 1 12 C0.03929566 9.11788698 -0.10581883 7.30149956 -0.0625 4.3125 C-0.05347656 3.50425781 -0.04445312 2.69601563 -0.03515625 1.86328125 C-0.02355469 1.24839844 -0.01195312 0.63351563 0 0 Z " fill="#1D6CBC" transform="translate(243,226)"/>
<path d="M0 0 C0.99 0 1.98 0 3 0 C3 1.98 3 3.96 3 6 C1.02 6.66 -0.96 7.32 -3 8 C-1.125 1.125 -1.125 1.125 0 0 Z " fill="#66BF3D" transform="translate(292,196)"/>
<path d="M0 0 C-0.33 3.3 -0.66 6.6 -1 10 C-2.32 10.33 -3.64 10.66 -5 11 C-4.67 8.03 -4.34 5.06 -4 2 C-4.66 1.67 -5.32 1.34 -6 1 C-3.92446352 0.4465236 -2.15634036 0 0 0 Z " fill="#E5F4E9" transform="translate(285,204)"/>
<path d="M0 0 C1.32 0.33 2.64 0.66 4 1 C3.979375 1.94875 3.95875 2.8975 3.9375 3.875 C3.77448174 6.90666283 3.77448174 6.90666283 5 9 C3.35 9 1.7 9 0 9 C0 6.03 0 3.06 0 0 Z " fill="#0680DE" transform="translate(227,316)"/>
<path d="M0 0 C0.66 0 1.32 0 2 0 C2.66 2.97 3.32 5.94 4 9 C2.02 9.99 2.02 9.99 0 11 C0 7.37 0 3.74 0 0 Z " fill="#67B502" transform="translate(304,307)"/>
<path d="M0 0 C2.99324263 1.0975223 3.84610901 1.67682892 5.25 4.625 C5.4975 5.40875 5.745 6.1925 6 7 C4.68 7 3.36 7 2 7 C1.34 7.66 0.68 8.32 0 9 C-0.66 7.68 -1.32 6.36 -2 5 C-1.34 4.67 -0.68 4.34 0 4 C0 2.68 0 1.36 0 0 Z " fill="#3397E6" transform="translate(263,299)"/>
<path d="M0 0 C1.8871875 0.0309375 1.8871875 0.0309375 3.8125 0.0625 C3.1525 1.3825 2.4925 2.7025 1.8125 4.0625 C-1.5625 4.25 -1.5625 4.25 -5.1875 4.0625 C-5.8475 3.0725 -6.5075 2.0825 -7.1875 1.0625 C-4.43671116 0.14557039 -2.82801087 -0.04636083 0 0 Z " fill="#7AAB06" transform="translate(386.1875,298.9375)"/>
<path d="M0 0 C3.70293685 -0.33663062 5.39534381 -0.47736015 8.375 1.875 C10 4 10 4 10 6 C6.7 6 3.4 6 0 6 C1.32 5.34 2.64 4.68 4 4 C4.33 3.34 4.66 2.68 5 2 C3.35 1.67 1.7 1.34 0 1 C0 0.67 0 0.34 0 0 Z " fill="#311F6B" transform="translate(174,298)"/>
<path d="M0 0 C10.55808656 0.96355353 10.55808656 0.96355353 15 2 C15 2.33 15 2.66 15 3 C10.05 3 5.1 3 0 3 C0 2.01 0 1.02 0 0 Z " fill="#5DC322" transform="translate(190,232)"/>
<path d="M0 0 C2 2 2 2 2.125 5.625 C2.08375 6.73875 2.0425 7.8525 2 9 C0.35 9.33 -1.3 9.66 -3 10 C-2.01 6.7 -1.02 3.4 0 0 Z " fill="#4094ED" transform="translate(292,305)"/>
<path d="M0 0 C-0.66 0 -1.32 0 -2 0 C-2 0.66 -2 1.32 -2 2 C-8.625 5 -8.625 5 -12 5 C-12.33 4.01 -12.66 3.02 -13 2 C-3.60674157 -1.20224719 -3.60674157 -1.20224719 0 0 Z " fill="#95DCCD" transform="translate(262,246)"/>
<path d="M0 0 C0.33 0.99 0.66 1.98 1 3 C-2.50776784 4.60355101 -5.14354879 5.22036864 -9 5 C-9.33 5.66 -9.66 6.32 -10 7 C-10.33 5.68 -10.66 4.36 -11 3 C-7.37 2.01 -3.74 1.02 0 0 Z " fill="#EAF4F2" transform="translate(310,236)"/>
<path d="M0 0 C2 3 2 3 2 6 C2.66 6 3.32 6 4 6 C4.33 5.01 4.66 4.02 5 3 C4.67 4.65 4.34 6.3 4 8 C3.34 8 2.68 8 2 8 C2 8.66 2 9.32 2 10 C0.68 10.33 -0.64 10.66 -2 11 C-1.67 9.35 -1.34 7.7 -1 6 C-0.34 6 0.32 6 1 6 C0.67 4.02 0.34 2.04 0 0 Z " fill="#519DEB" transform="translate(284,312)"/>
<path d="M0 0 C-0.66 1.65 -1.32 3.3 -2 5 C-3.32 5 -4.64 5 -6 5 C-6 4.01 -6 3.02 -6 2 C-7.32 1.67 -8.64 1.34 -10 1 C-6.59437148 0.22157062 -3.49234244 -0.09978121 0 0 Z " fill="#77C015" transform="translate(270,246)"/>
<path d="M0 0 C5.75 -0.125 5.75 -0.125 8 1 C7.67 1.99 7.34 2.98 7 4 C4.69 4 2.38 4 0 4 C0 2.68 0 1.36 0 0 Z " fill="#68C201" transform="translate(202,242)"/>
<path d="M0 0 C-0.33 0.99 -0.66 1.98 -1 3 C-2.65 3.33 -4.3 3.66 -6 4 C-6 3.34 -6 2.68 -6 2 C-7.32 2.33 -8.64 2.66 -10 3 C-10 2.01 -10 1.02 -10 0 C-6.30458414 -0.95024979 -3.69541586 -0.95024979 0 0 Z " fill="#206CBC" transform="translate(260,226)"/>
<path d="M0 0 C1.65 0 3.3 0 5 0 C5 1.65 5 3.3 5 5 C3.35 5.33 1.7 5.66 0 6 C0 4.02 0 2.04 0 0 Z " fill="#65BE53" transform="translate(257,212)"/>
<path d="M0 0 C0.66 0 1.32 0 2 0 C2 0.66 2 1.32 2 2 C3.98 2 5.96 2 8 2 C8 2.66 8 3.32 8 4 C10.64 4.33 13.28 4.66 16 5 C16 5.33 16 5.66 16 6 C5.1005291 6.57142857 5.1005291 6.57142857 1 3 C0.67 2.01 0.34 1.02 0 0 Z " fill="#8CB831" transform="translate(340,320)"/>
<path d="M0 0 C0.33 0 0.66 0 1 0 C1 4.33333333 1 8.66666667 1 13 C-0.98 13.99 -0.98 13.99 -3 15 C-3 14.01 -3 13.02 -3 12 C-3.66 11.67 -4.32 11.34 -5 11 C-4.360625 10.67 -3.72125 10.34 -3.0625 10 C0.0552764 6.97670168 -0.27956936 4.26343276 0 0 Z " fill="#93C133" transform="translate(325,309)"/>
<path d="M0 0 C0.66 0 1.32 0 2 0 C4.28571429 8.42857143 4.28571429 8.42857143 4 13 C3.01 12.67 2.02 12.34 1 12 C0.83211627 10.37512529 0.66573213 8.75009558 0.5 7.125 C0.4071875 6.22007812 0.314375 5.31515625 0.21875 4.3828125 C0 2 0 2 0 0 Z " fill="#101365" transform="translate(209,305)"/>
<path d="M0 0 C1.98 0.99 3.96 1.98 6 3 C3.75701402 5.24298598 3.07683445 5.58421156 0 6 C-2.34114367 5.72686657 -4.67750658 5.40197001 -7 5 C-7 4.67 -7 4.34 -7 4 C-5.02 3.67 -3.04 3.34 -1 3 C-0.67 2.01 -0.34 1.02 0 0 Z " fill="#301E66" transform="translate(149,299)"/>
<path d="M0 0 C3.68754757 0.49831724 5.60490662 1.10067643 8 4 C5.69 4.33 3.38 4.66 1 5 C1 4.34 1 3.68 1 3 C0.34 3 -0.32 3 -1 3 C-0.67 2.01 -0.34 1.02 0 0 Z " fill="#76B411" transform="translate(341,317)"/>
<path d="M0 0 C1.65 0 3.3 0 5 0 C4.75 3.375 4.75 3.375 4 7 C1.9375 8.4375 1.9375 8.4375 0 9 C0.33 7.02 0.66 5.04 1 3 C0.34 3 -0.32 3 -1 3 C-0.67 2.01 -0.34 1.02 0 0 Z " fill="#1A0F65" transform="translate(201,310)"/>
<path d="M0 0 C-2 3 -2 3 -5.125 3.6875 C-6.07375 3.790625 -7.0225 3.89375 -8 4 C-8.33 3.34 -8.66 2.68 -9 2 C-5.73400654 -1.26599346 -4.35266641 -1.03089468 0 0 Z " fill="#14035D" transform="translate(180,300)"/>
<path d="M0 0 C2.64 0 5.28 0 8 0 C8 0.99 8 1.98 8 3 C8.66 3.33 9.32 3.66 10 4 C7.47524538 5.26237731 5.68799534 5.09856404 2.875 5.0625 C1.96492188 5.05347656 1.05484375 5.04445313 0.1171875 5.03515625 C-0.58148438 5.02355469 -1.28015625 5.01195312 -2 5 C-2 4.67 -2 4.34 -2 4 C1.465 3.505 1.465 3.505 5 3 C5 2.34 5 1.68 5 1 C3.35 1 1.7 1 0 1 C0 0.67 0 0.34 0 0 Z " fill="#618EBA" transform="translate(266,264)"/>
<path d="M0 0 C1.85776765 3.13498292 2.20140476 5.37471432 2 9 C1.34 9 0.68 9 0 9 C0 8.34 0 7.68 0 7 C-1.32 6.34 -2.64 5.68 -4 5 C-2.68 3.35 -1.36 1.7 0 0 Z " fill="#3887B6" transform="translate(248,245)"/>
<path d="M0 0 C4.30764815 1.56641751 8.06171464 3.68336156 12 6 C12 6.99 12 7.98 12 9 C11.34 9 10.68 9 10 9 C9.608125 8.566875 9.21625 8.13375 8.8125 7.6875 C6.1874619 5.24349901 3.32711134 4.3182894 0 3 C0 2.01 0 1.02 0 0 Z " fill="#CAECF1" transform="translate(233,241)"/>
<path d="M0 0 C-1 3 -1 3 -3 4 C-4.99960012 4.039992 -7.00047242 4.04346799 -9 4 C-9 3.01 -9 2.02 -9 1 C-5.846632 0.29925156 -3.27275026 0 0 0 Z " fill="#4DB318" transform="translate(310,240)"/>
<path d="M0 0 C1.98 0 3.96 0 6 0 C6.33 0.99 6.66 1.98 7 3 C3.7 3.33 0.4 3.66 -3 4 C-2.67 3.34 -2.34 2.68 -2 2 C-1.34 2 -0.68 2 0 2 C0 1.34 0 0.68 0 0 Z " fill="#4BBE25" transform="translate(282,236)"/>
<path d="M0 0 C0.1875 3.375 0.1875 3.375 0 7 C-0.99 7.66 -1.98 8.32 -3 9 C-4 8 -4 8 -4.25 5.0625 C-4.1675 4.051875 -4.085 3.04125 -4 2 C-1 0 -1 0 0 0 Z " fill="#69A200" transform="translate(319,170)"/>
<path d="M0 0 C2.31 0 4.62 0 7 0 C7.66 1.32 8.32 2.64 9 4 C6.69 4 4.38 4 2 4 C1.34 2.68 0.68 1.36 0 0 Z " fill="#282B68" transform="translate(213,321)"/>
<path d="M0 0 C0 1.32 0 2.64 0 4 C-2.64 4 -5.28 4 -8 4 C-7.67 3.01 -7.34 2.02 -7 1 C-4 0 -4 0 0 0 Z " fill="#6BBC00" transform="translate(281,244)"/>
<path d="M0 0 C1.875 0.1875 1.875 0.1875 4 1 C6.91074667 5.4354235 5.79924698 10.04250858 5 15 C4.67 15 4.34 15 4 15 C3.67 11.04 3.34 7.08 3 3 C2.01 3 1.02 3 0 3 C0 2.01 0 1.02 0 0 Z " fill="#C1E6C8" transform="translate(315,193)"/>
<path d="M0 0 C0.33 0 0.66 0 1 0 C1 2.97 1 5.94 1 9 C1.66 9 2.32 9 3 9 C3 9.99 3 10.98 3 12 C3.99 12 4.98 12 6 12 C5.67 12.99 5.34 13.98 5 15 C2.51953125 13.88671875 2.51953125 13.88671875 0 12 C-0.48828125 9.08203125 -0.48828125 9.08203125 -0.3125 5.8125 C-0.26738281 4.72582031 -0.22226562 3.63914063 -0.17578125 2.51953125 C-0.11777344 1.68808594 -0.05976563 0.85664063 0 0 Z " fill="#3074BD" transform="translate(303,169)"/>
<path d="M0 0 C2.31 0 4.62 0 7 0 C5.68 1.65 4.36 3.3 3 5 C1.68 4.67 0.36 4.34 -1 4 C-0.67 2.68 -0.34 1.36 0 0 Z " fill="#4094E7" transform="translate(275,329)"/>
<path d="M0 0 C0.66 0 1.32 0 2 0 C0.52307692 5.66153846 0.52307692 5.66153846 -2.125 7.375 C-3.053125 7.684375 -3.053125 7.684375 -4 8 C-4.33 7.01 -4.66 6.02 -5 5 C-4.360625 4.731875 -3.72125 4.46375 -3.0625 4.1875 C-0.66868314 3.11332248 -0.66868314 3.11332248 0 0 Z " fill="#261960" transform="translate(156,315)"/>
<path d="M0 0 C0.99 0.99 1.98 1.98 3 3 C2.34 4.32 1.68 5.64 1 7 C0.01 6.67 -0.98 6.34 -2 6 C-2.6875 3.9375 -2.6875 3.9375 -3 2 C-2.01 1.34 -1.02 0.68 0 0 Z " fill="#1F0B62" transform="translate(186,315)"/>
<path d="M0 0 C0.66 0 1.32 0 2 0 C2.226875 0.5775 2.45375 1.155 2.6875 1.75 C4.33038023 4.5663661 6.39533227 6.08077114 9 8 C6.75 8.3125 6.75 8.3125 4 8 C1.6875 5.6875 1.6875 5.6875 0 3 C0 2.01 0 1.02 0 0 Z " fill="#3574BA" transform="translate(290,222)"/>
<path d="M0 0 C0 1.98 0 3.96 0 6 C-0.66 6 -1.32 6 -2 6 C-2.33 5.01 -2.66 4.02 -3 3 C-5.64 2.67 -8.28 2.34 -11 2 C-11 1.67 -11 1.34 -11 1 C-7.27569643 0.30710631 -3.78916254 -0.11144596 0 0 Z " fill="#538CC8" transform="translate(280,222)"/>
<path d="M0 0 C0.66 0 1.32 0 2 0 C2.66 2.31 3.32 4.62 4 7 C1 8 1 8 -1.1875 7.0625 C-1.785625 6.711875 -2.38375 6.36125 -3 6 C-2.34 5.34 -1.68 4.68 -1 4 C-0.3574765 1.93125966 -0.3574765 1.93125966 0 0 Z " fill="#D9E5F0" transform="translate(307,187)"/>
<path d="M0 0 C3 0 3 0 5 1 C6.66392045 1.67349161 8.33032028 2.3409159 10 3 C9.67 3.66 9.34 4.32 9 5 C5.87709365 4.51421457 3.00419641 4.0013988 0 3 C0 2.01 0 1.02 0 0 Z " fill="#3AA3EC" transform="translate(232,299)"/>
<path d="M0 0 C-0.33 0.33 -0.66 0.66 -1 1 C-0.34 1.33 0.32 1.66 1 2 C1 2.66 1 3.32 1 4 C-0.98 4 -2.96 4 -5 4 C-5.33 2.68 -5.66 1.36 -6 0 C-3 -1 -3 -1 0 0 Z " fill="#3C9DF3" transform="translate(205,225)"/>
<path d="M0 0 C0.33 0.66 0.66 1.32 1 2 C2.98 1.67 4.96 1.34 7 1 C7 1.99 7 2.98 7 4 C0.375 4.25 0.375 4.25 -3 2 C-2.01 1.34 -1.02 0.68 0 0 Z " fill="#70C201" transform="translate(226,246)"/>
<path d="M0 0 C0.66 0.33 1.32 0.66 2 1 C1.34 2.32 0.68 3.64 0 5 C0.66 5.33 1.32 5.66 2 6 C0.25 6.6875 0.25 6.6875 -2 7 C-4.25 5.5625 -4.25 5.5625 -6 4 C-4.02 2.68 -2.04 1.36 0 0 Z " fill="#39A7EE" transform="translate(268,233)"/>
<path d="M0 0 C2.31 0 4.62 0 7 0 C6.34 1.32 5.68 2.64 5 4 C3.68 4 2.36 4 1 4 C0.67 2.68 0.34 1.36 0 0 Z " fill="#12035B" transform="translate(172,321)"/>
<path d="M0 0 C1.65 0 3.3 0 5 0 C5 1.32 5 2.64 5 4 C3.35 4.33 1.7 4.66 0 5 C0 3.35 0 1.7 0 0 Z " fill="#0D8EEC" transform="translate(246,306)"/>
<path d="M0 0 C1 3 1 3 1 5 C-0.98 5.33 -2.96 5.66 -5 6 C-4.75 4.125 -4.75 4.125 -4 2 C-1.9375 0.75 -1.9375 0.75 0 0 Z " fill="#0899EC" transform="translate(273,232)"/>
<path d="M0 0 C0.66 0.33 1.32 0.66 2 1 C1.34 3.31 0.68 5.62 0 8 C-0.99 8 -1.98 8 -3 8 C-3 6.68 -3 5.36 -3 4 C-2.34 4 -1.68 4 -1 4 C-0.67 2.68 -0.34 1.36 0 0 Z " fill="#2066C5" transform="translate(317,222)"/>
<path d="M0 0 C0.88492145 2.47778006 1.11637742 3.66056586 0.25 6.1875 C-1 8 -1 8 -4 9 C-3.67 6.69 -3.34 4.38 -3 2 C-2.01 2.33 -1.02 2.66 0 3 C0 2.01 0 1.02 0 0 Z " fill="#36B025" transform="translate(318,208)"/>
<path d="M0 0 C1.32 0 2.64 0 4 0 C4.33 1.32 4.66 2.64 5 4 C3.68 4 2.36 4 1 4 C1 5.65 1 7.3 1 9 C0.67 9 0.34 9 0 9 C0 6.03 0 3.06 0 0 Z " fill="#43AA18" transform="translate(314,196)"/>
<path d="M0 0 C1.24546405 2.49092811 0.7767578 3.41080733 0 6 C2.97 6.495 2.97 6.495 6 7 C5.67 7.66 5.34 8.32 5 9 C0.125 8.125 0.125 8.125 -1 7 C-1.125 4 -1.125 4 -1 1 C-0.67 0.67 -0.34 0.34 0 0 Z " fill="#3579AF" transform="translate(310,185)"/>
<path d="M0 0 C0.66 0 1.32 0 2 0 C2 0.66 2 1.32 2 2 C2.99 2 3.98 2 5 2 C5 2.99 5 3.98 5 5 C2.03 4.505 2.03 4.505 -1 4 C-1 1 -1 1 0 0 Z " fill="#68BF17" transform="translate(243,255)"/>
<path d="M0 0 C1.32 0 2.64 0 4 0 C4 1.65 4 3.3 4 5 C3.01 5.495 3.01 5.495 2 6 C2 5.34 2 4.68 2 4 C0.68 3.34 -0.64 2.68 -2 2 C-1.34 1.34 -0.68 0.68 0 0 Z " fill="#80B715" transform="translate(342,301)"/>
<path d="M0 0 C1.98 0 3.96 0 6 0 C6 0.66 6 1.32 6 2 C6.99 2.66 7.98 3.32 9 4 C7.35 4.33 5.7 4.66 4 5 C2.68 3.35 1.36 1.7 0 0 Z " fill="#226AC9" transform="translate(264,224)"/>
<path d="M0 0 C0 1.98 0 3.96 0 6 C-1.32 6 -2.64 6 -4 6 C-3.625 3.5625 -3.625 3.5625 -3 1 C-1 0 -1 0 0 0 Z " fill="#73BB0E" transform="translate(283,199)"/>
<path d="M0 0 C0 2.31 0 4.62 0 7 C-1.32 7 -2.64 7 -4 7 C-4.33 6.01 -4.66 5.02 -5 4 C-1.125 0 -1.125 0 0 0 Z " fill="#79B50B" transform="translate(309,314)"/>
<path d="M0 0 C1.98 0 3.96 0 6 0 C6 0.99 6 1.98 6 3 C4.35 3.33 2.7 3.66 1 4 C0.67 2.68 0.34 1.36 0 0 Z " fill="#3793EC" transform="translate(273,299)"/>
<path d="M0 0 C-0.33 1.32 -0.66 2.64 -1 4 C-2.32 4 -3.64 4 -5 4 C-5 3.01 -5 2.02 -5 1 C-2 0 -2 0 0 0 Z " fill="#2464CB" transform="translate(288,258)"/>
<path d="M0 0 C1.32 0 2.64 0 4 0 C3.67 1.98 3.34 3.96 3 6 C2.34 6 1.68 6 1 6 C0.34 4.35 -0.32 2.7 -1 1 C-0.67 0.67 -0.34 0.34 0 0 Z " fill="#53BB22" transform="translate(287,241)"/>
<path d="M0 0 C1.65 0 3.3 0 5 0 C4.67 1.32 4.34 2.64 4 4 C2.68 4 1.36 4 0 4 C0 2.68 0 1.36 0 0 Z " fill="#51BCAD" transform="translate(325,230)"/>
<path d="M0 0 C0.66 0.66 1.32 1.32 2 2 C3.32 2 4.64 2 6 2 C5.67 2.99 5.34 3.98 5 5 C3.35 5 1.7 5 0 5 C0 3.35 0 1.7 0 0 Z " fill="#2772CE" transform="translate(249,226)"/>
<path d="M0 0 C0.99 0 1.98 0 3 0 C3 1.65 3 3.3 3 5 C1.68 5 0.36 5 -1 5 C-0.67 3.35 -0.34 1.7 0 0 Z " fill="#2665A4" transform="translate(288,153)"/>
<path d="M0 0 C0.33 0 0.66 0 1 0 C1 1.98 1 3.96 1 6 C-0.32 6 -1.64 6 -3 6 C-1.125 1.125 -1.125 1.125 0 0 Z " fill="#2586EC" transform="translate(267,316)"/>
<path d="M0 0 C0.66 0.33 1.32 0.66 2 1 C1.0409375 1.804375 1.0409375 1.804375 0.0625 2.625 C-2.38529404 5.44367193 -2.66714612 7.33860732 -3 11 C-3.33 11 -3.66 11 -4 11 C-4.49230769 4.6 -4.49230769 4.6 -2 1.5625 C-1.34 1.046875 -0.68 0.53125 0 0 Z " fill="#EBF2D9" transform="translate(313,304)"/>
<path d="M0 0 C1.134375 0.020625 2.26875 0.04125 3.4375 0.0625 C2.1175 1.3825 0.7975 2.7025 -0.5625 4.0625 C-1.8825 3.0725 -3.2025 2.0825 -4.5625 1.0625 C-3.5625 0.0625 -3.5625 0.0625 0 0 Z " fill="#2A2C6B" transform="translate(217.5625,298.9375)"/>
<path d="M0 0 C3.37462715 0.54723683 5.08235 1.0549 8 3 C7.67 3.66 7.34 4.32 7 5 C4.0625 4.1875 4.0625 4.1875 1 3 C0.67 2.01 0.34 1.02 0 0 Z " fill="#86E2B2" transform="translate(235,245)"/>
<path d="M0 0 C-0.99 0.495 -0.99 0.495 -2 1 C-1.67 1.66 -1.34 2.32 -1 3 C-3.64 2.67 -6.28 2.34 -9 2 C-4.13793103 -1.24137931 -4.13793103 -1.24137931 0 0 Z " fill="#67C63E" transform="translate(282,238)"/>
<path d="M0 0 C-3.45245824 2.30163882 -4.94738713 2.34490322 -9 2 C-9.66 1.34 -10.32 0.68 -11 0 C-3.375 -1.125 -3.375 -1.125 0 0 Z " fill="#3473C5" transform="translate(307,234)"/>
<path d="M0 0 C1.65 0.33 3.3 0.66 5 1 C4.67 2.32 4.34 3.64 4 5 C2.35 4.01 0.7 3.02 -1 2 C-0.67 1.34 -0.34 0.68 0 0 Z " fill="#3273B2" transform="translate(305,194)"/>
<path d="M0 0 C0.99 0 1.98 0 3 0 C3 1.98 3 3.96 3 6 C2.01 6 1.02 6 0 6 C0 4.02 0 2.04 0 0 Z " fill="#0F5FB6" transform="translate(258,165)"/>
<path d="M0 0 C0.33 0.66 0.66 1.32 1 2 C1.66 2.33 2.32 2.66 3 3 C2.01 4.485 2.01 4.485 1 6 C-1.625 6.1875 -1.625 6.1875 -4 6 C-3.525625 5.566875 -3.05125 5.13375 -2.5625 4.6875 C-0.76313043 2.97690387 -0.76313043 2.97690387 0 0 Z " fill="#055BBB" transform="translate(306,154)"/>
<path d="M0 0 C0.99 0.33 1.98 0.66 3 1 C2.34 2.32 1.68 3.64 1 5 C0.34 5 -0.32 5 -1 5 C-1.33 3.68 -1.66 2.36 -2 1 C-1.34 0.67 -0.68 0.34 0 0 Z " fill="#140358" transform="translate(154,306)"/>
<path d="M0 0 C2.97 0.495 2.97 0.495 6 1 C6 1.99 6 2.98 6 4 C3.36 3.67 0.72 3.34 -2 3 C-1.34 2.67 -0.68 2.34 0 2 C0 1.34 0 0.68 0 0 Z " fill="#D3F0EB" transform="translate(198,230)"/>
<path d="M0 0 C1.65 0 3.3 0 5 0 C5.33 0.99 5.66 1.98 6 3 C4.02 3 2.04 3 0 3 C0 2.01 0 1.02 0 0 Z " fill="#53B40E" transform="translate(266,213)"/>
<path d="M0 0 C2.0625 0.4375 2.0625 0.4375 4 1 C2.02 1.99 2.02 1.99 0 3 C0 3.99 0 4.98 0 6 C0.66 6.33 1.32 6.66 2 7 C1.01 7 0.02 7 -1 7 C-1.04254356 5.00045254 -1.04080783 2.99958364 -1 1 C-0.67 0.67 -0.34 0.34 0 0 Z " fill="#78B62A" transform="translate(289,177)"/>
<path d="M0 0 C3 1 6 2 9 3 C5.7169902 4.6415049 2.57454967 3.51888624 -1 3 C-0.67 2.01 -0.34 1.02 0 0 Z " fill="#2264A7" transform="translate(248,170)"/>
</svg>
