<svg width="135" height="132" viewBox="0 0 135 132" fill="none" xmlns="http://www.w3.org/2000/svg">
<rect width="135" height="132" fill="#F5F5F5"/>
<g clip-path="url(#clip0_0_1)">
<path d="M0 0C44.55 0 89.1 0 135 0C135 43.56 135 87.12 135 132C90.45 132 45.9 132 0 132C0 88.44 0 44.88 0 0Z" fill="#FFA500" fill-opacity="0.7"/>
<path d="M92.0318 30.0618C99.2968 35.9177 103.775 43.2114 105.236 52.381C106.513 65.2535 102.702 76.8609 94.6063 86.9524C93.6384 88.071 92.6645 89.1846 91.6831 90.2917C86.0991 97.1706 86.8814 102.882 86.1023 112.095C74.5264 112.095 62.9504 112.095 51.0236 112.095C51.0236 107.255 51.0236 102.415 51.0236 97.4286C49.7081 97.515 48.3927 97.6014 47.0374 97.6905C43.9071 97.8961 42.7814 97.6086 40.1695 95.8121C37.297 91.9242 37.4401 87.8249 37.2504 83.1814C37.1162 80.8376 37.1162 80.8376 36.1417 77.5238C33.0232 75.385 33.0232 75.385 29.7638 74.381C29.2877 69.5847 30.6632 67.317 33.3514 63.381C36.2982 58.6681 37.7256 55.0663 38.3341 49.5655C39.3279 40.9465 42.9895 35.4364 49.7613 29.9881C62.5439 21.415 79.1114 21.6885 92.0318 30.0618Z" fill="#F4DDCD"/>
<path d="M0 0C18.9425 0 37.885 0 57.4016 0C57.4016 0.345714 57.4016 0.691429 57.4016 1.04762C56.2793 1.26031 56.2793 1.26031 55.1344 1.47731C40.8421 4.54818 29.3304 10.6231 19.1339 20.9524C18.2583 21.7647 18.2583 21.7647 17.365 22.5934C6.73762 33.3191 1.74003 49.2225 1.86024 63.7738C1.85201 64.761 1.84379 65.7482 1.83532 66.7653C1.88246 83.56 8.33306 99.8716 20.1968 112.095C25.8873 117.387 31.8861 121.275 38.9321 124.536C39.5794 124.835 40.2266 125.135 40.8935 125.444C55.6805 131.956 75.2315 132.672 90.4872 127.134C95.1045 124.989 99.4706 122.52 103.787 119.838C106.299 118.381 106.299 118.381 108.425 118.381C108.425 117.69 108.425 116.998 108.425 116.286C109.643 115.188 110.917 114.151 112.212 113.143C123.4 103.692 131.757 88.5153 133.107 73.9676C134.054 53.8295 129.844 36.7984 116.198 21.1488C104.989 9.6663 92.1537 4.07564 76.5354 1.04762C76.5354 0.701905 76.5354 0.35619 76.5354 0C95.8287 0 115.122 0 135 0C135 43.56 135 87.12 135 132C90.45 132 45.9 132 0 132C0 88.44 0 44.88 0 0Z" fill="#F4F4F4"/>
<path d="M74.343 33.8512C76.5355 34.5714 76.5355 34.5714 79.7244 36.6667C80.6014 36.4722 81.4784 36.2777 82.3819 36.0774C83.6974 35.8505 83.6974 35.8505 85.0394 35.6191C87.7377 37.5186 88.2229 38.7458 89.2914 41.9048C91.4334 42.6729 91.4334 42.6729 93.5433 42.9524C94.1413 44.9821 94.1413 44.9821 94.6063 47.1429C94.2555 47.4886 93.9047 47.8343 93.5433 48.1905C94.5957 48.8819 95.6481 49.5733 96.7323 50.2857C97.2397 54.186 96.8798 55.3058 94.6063 58.6667C94.4287 61.417 94.4287 61.417 94.6063 63.9048C92.8524 64.5962 91.0984 65.2876 89.2914 66C88.5898 65.3086 87.8882 64.6171 87.1654 63.9048C87.2311 64.8987 87.2969 65.8926 87.3647 66.9167C87.266 68.5372 87.266 68.5372 87.1654 70.1905C83.9764 72.2857 83.9764 72.2857 81.7175 72.0238C79.7244 71.2381 79.7244 71.2381 78.6614 69.1429C79.658 66.9167 79.658 66.9167 80.7874 64.9524C80.0858 64.9524 79.3843 64.9524 78.6614 64.9524C78.3107 66.3352 77.9599 67.7181 77.5984 69.1429C75.1403 69.8631 75.1403 69.8631 72.2835 70.1905C69.9048 68.5997 69.224 67.4536 68.3637 64.756C68.2541 64.1293 68.1445 63.5027 68.0315 62.8571C67.6807 64.24 67.3299 65.6229 66.9685 67.0476C65.2146 66.7019 63.4607 66.3562 61.6536 66C61.3028 64.6171 60.952 63.2343 60.5906 61.8095C59.889 62.501 59.1874 63.1924 58.4646 63.9048C55.8071 64.1667 55.8071 64.1667 53.1496 63.9048C52.4481 63.2133 51.7465 62.5219 51.0236 61.8095C51.0236 60.4267 51.0236 59.0438 51.0236 57.6191C50.0371 57.9432 50.0371 57.9432 49.0305 58.2738C48.2851 58.4035 47.5397 58.5331 46.7717 58.6667C46.0701 57.9752 45.3685 57.2838 44.6457 56.5714C44.6457 55.1886 44.6457 53.8057 44.6457 52.381C46.0488 52.381 47.452 52.381 48.8977 52.381C48.3496 51.9488 47.8014 51.5167 47.2367 51.0714C45.7087 49.2381 45.7087 49.2381 45.908 47.0774C46.7717 45.0476 46.7717 45.0476 48.8977 42.9524C51.688 42.8214 51.688 42.8214 54.2126 42.9524C53.511 42.6067 52.8095 42.261 52.0866 41.9048C52.4374 40.5219 52.7882 39.1391 53.1496 37.7143C54.5528 37.7143 55.9559 37.7143 57.4016 37.7143C57.4016 38.7514 57.4016 39.7886 57.4016 40.8571C58.1032 40.8571 58.8047 40.8571 59.5276 40.8571C59.8784 39.1286 60.2292 37.4 60.5906 35.6191C63.0487 34.8988 63.0487 34.8988 65.9055 34.5714C67.8322 35.881 67.8322 35.881 69.0945 37.7143C69.0945 38.7514 69.0945 39.7886 69.0945 40.8571C69.7961 40.8571 70.4977 40.8571 71.2205 40.8571C70.8697 38.7829 70.5189 36.7086 70.1575 34.5714C72.2835 33.5238 72.2835 33.5238 74.343 33.8512Z" fill="#008000"/>
<path d="M70.1575 47.1428C72.3396 48.8203 74.4695 50.5662 76.5354 52.3809C78.8925 53.2743 78.8925 53.2743 80.7874 53.4285C80.4366 52.3914 80.0858 51.3543 79.7244 50.2857C80.7768 50.6314 81.8291 50.9771 82.9134 51.3333C82.9134 53.0619 82.9134 54.7904 82.9134 56.5714C82.5626 55.88 82.2118 55.1885 81.8504 54.4762C80.9077 54.5626 79.9649 54.649 78.9936 54.7381C74.6727 54.4167 73.4691 52.8967 70.1575 50.2857C66.7455 49.9346 66.7455 49.9346 63.7795 50.2857C63.078 52.7057 62.3764 55.1257 61.6535 57.619C60.952 57.2733 60.2504 56.9276 59.5276 56.5714C59.5276 54.8428 59.5276 53.1143 59.5276 51.3333C55.9143 52.5203 55.2197 53.5597 53.1496 56.5714C53.5004 54.4971 53.8512 52.4228 54.2126 50.2857C53.1602 49.94 52.1079 49.5943 51.0236 49.2381C53.1496 48.1905 53.1496 48.1905 56.8036 48.7797C62.0183 49.4109 64.6235 46.3942 70.1575 47.1428Z" fill="#001414"/>
</g>
<defs>
<clipPath id="clip0_0_1">
<rect width="135" height="132" fill="white"/>
</clipPath>
</defs>
</svg>
